<svg width="330" height="65" viewBox="0 0 330 65" fill="none" xmlns="http://www.w3.org/2000/svg">
<path d="M78.1548 41.4088H75.498V22.7222H78.1548L89.326 37.2128V22.7222H91.9827V41.4088H89.326L78.1548 26.9182V41.4088Z" fill="white"/>
<path d="M96.7519 22.7222H110.295V25.3936H99.4086V30.7363H108.701V33.4077H99.4086V38.7374H110.295V41.4088H96.7519V22.7222Z" fill="white"/>
<path d="M114.273 41.4088V22.7222H124.447C127.453 22.7222 128.957 24.2382 128.957 27.2701V29.9284C128.957 32.9603 127.453 34.4763 124.447 34.4763H116.93V41.4088H114.273ZM116.93 31.8049H124.304C125.013 31.8049 125.522 31.6485 125.833 31.3358C126.144 31.023 126.3 30.5105 126.3 29.7981V27.4004C126.3 26.688 126.144 26.1755 125.833 25.8627C125.522 25.55 125.013 25.3936 124.304 25.3936H116.93V31.8049Z" fill="white"/>
<path d="M131.082 22.7222H145.947V25.3936H139.843V41.4088H137.186V25.3936H131.082V22.7222Z" fill="white"/>
<path d="M149.135 22.7222H151.792V38.7374H162.405V22.7222H165.062V38.7374C165.062 39.1023 164.993 39.4498 164.855 39.7799C164.717 40.1013 164.527 40.3837 164.285 40.6269C164.043 40.8702 163.758 41.0613 163.429 41.2003C163.11 41.3393 162.768 41.4088 162.405 41.4088H151.792C151.429 41.4088 151.083 41.3393 150.755 41.2003C150.435 41.0613 150.154 40.8702 149.912 40.6269C149.67 40.3837 149.48 40.1013 149.342 39.7799C149.204 39.4498 149.135 39.1023 149.135 38.7374V22.7222Z" fill="white"/>
<path d="M172.501 41.4088H169.844V22.7222H172.501L183.672 37.2128V22.7222H186.329V41.4088H183.672L172.501 26.9182V41.4088Z" fill="white"/>
<path d="M191.098 22.7222H204.641V25.3936H193.755V30.7363H203.047V33.4077H193.755V38.7374H204.641V41.4088H191.098V22.7222Z" fill="white"/>
<path d="M226.167 41.4088L219.234 27.7131V41.4088H216.577V22.7222H219.48L226.556 36.7958L233.645 22.7222H236.535V41.4088H233.891V27.7131L226.958 41.4088H226.167Z" fill="white"/>
<path d="M241.33 22.7222H243.986V38.7374H254.6V22.7222H257.257V38.7374C257.257 39.1023 257.188 39.4498 257.05 39.7799C256.912 40.1013 256.722 40.3837 256.48 40.6269C256.238 40.8702 255.953 41.0613 255.624 41.2003C255.305 41.3393 254.963 41.4088 254.6 41.4088H243.986C243.624 41.4088 243.278 41.3393 242.95 41.2003C242.63 41.0613 242.349 40.8702 242.107 40.6269C241.865 40.3837 241.675 40.1013 241.537 39.7799C241.399 39.4498 241.33 39.1023 241.33 38.7374V22.7222Z" fill="white"/>
<path d="M260.445 22.7222H275.31V25.3936H269.206V41.4088H266.549V25.3936H260.445V22.7222Z" fill="white"/>
<path d="M278.498 22.7222H281.155V38.7374H291.769V22.7222H294.425V38.7374C294.425 39.1023 294.356 39.4498 294.218 39.7799C294.08 40.1013 293.89 40.3837 293.648 40.6269C293.406 40.8702 293.121 41.0613 292.793 41.2003C292.473 41.3393 292.132 41.4088 291.769 41.4088H281.155C280.792 41.4088 280.446 41.3393 280.118 41.2003C279.798 41.0613 279.518 40.8702 279.276 40.6269C279.034 40.3837 278.844 40.1013 278.705 39.7799C278.567 39.4498 278.498 39.1023 278.498 38.7374V22.7222Z" fill="white"/>
<path d="M307.437 22.7222L314.604 41.4088H311.947L310.301 37.1085H301.916L300.27 41.4088H297.614L304.78 22.7222H307.437ZM302.927 34.4372H309.277L306.115 26.2015L302.927 34.4372Z" fill="white"/>
<path d="M320.448 22.7222V38.7374H330V41.4088H317.792V22.7222H320.448Z" fill="white"/>
<path d="M26.638 63.3374C23.8825 64.0826 20.9484 63.0127 19.3702 60.6873L1.97333 35.0537C0.395124 32.7283 0.531813 29.6763 2.3119 27.4939L21.9342 3.43722C23.7143 1.25484 26.7329 0.438497 29.4112 1.41514L58.9353 12.1808C61.6136 13.1574 63.3426 15.7049 63.2178 18.4909L61.8424 49.2012C61.7176 51.9871 59.7675 54.3779 57.0121 55.1231L26.638 63.3374Z" fill="url(#paint0_radial)"/>
<path d="M40.5596 21.515L40.4551 21.3688V21.4315L40.5596 21.515Z" fill="#888888"/>
<path d="M42.8682 25.147L44.9487 26.2057L44.0125 24.2336H42.5353L41.5159 21.5142L39.581 19.9365L39.2065 19.293L39.1857 18.3796L41.9112 18.8571L39.1857 17.3832H26.3906L23.6652 18.8571L26.3906 18.3796L26.3698 19.293L25.0175 21.5142L24.0189 24.2336H22.5209L21.6055 26.2057L23.6652 25.147L26.0785 21.3481L26.4947 22.822L30.9469 24.4827L32.008 23.4655L31.7167 22.0539L31.4879 21.016L32.3409 22.9673L32.5489 24.6488H33.9845L34.1925 22.9673L35.0455 21.016L34.5462 23.4655L35.6073 24.4827L40.0595 22.822L40.4548 21.4312V21.3689V21.3481L42.8682 25.147Z" fill="#DFEEF7"/>
<path d="M36.3984 24.4412V25.6244H37.7092V25.147H38.9783L40.1641 23.8807L38.9366 24.4412H36.3984Z" fill="white"/>
<path d="M30.1375 25.6244V24.4412H27.5993L26.3926 23.8807L27.5577 25.147H28.8476V25.6244H30.1375Z" fill="white"/>
<path d="M34.6733 37.6439L35.6095 36.2946H30.9492L31.8854 37.6439H34.6733Z" fill="#8495B6"/>
<path d="M37.0243 44.9509V40.4877L35.3599 38.1005H34.3404L34.4029 40.6331L32.676 38.1005H31.1781L29.5345 40.4877V44.9509L28.7023 40.9652L24.25 46.7362V51.6768L25.4151 48.2308L25.5399 50.5143L28.3694 53.1092L28.4318 54.6868L28.9103 52.3618L27.1211 50.4313L27.0587 48.2308L28.4318 46.3833L28.307 50.1614L30.0338 51.8429L28.3694 58.7348L30.8452 53.1922L32.1559 59.7313L34.4861 63.4471L33.5706 59.7313L34.7565 52.4241V56.4098L35.7136 53.1922L38.1894 58.7348L36.3377 52.0089L38.2518 50.1614L38.1061 46.3833L39.5001 48.2308L39.4169 50.4313L37.6276 52.3618L38.1061 54.6868L38.1894 53.1092L40.998 50.5143L41.1437 48.2308L42.3088 51.6768V46.7362L37.8357 40.9652L37.0243 44.9509Z" fill="white"/>
<path d="M22.6044 20.1648H24.4768L25.2882 19.459H23.2493L22.0218 17.9021H20.3366L17.9648 23.1749L20.9192 19.1684L22.6044 20.1648Z" fill="white"/>
<path d="M20.0864 23.5486L21.1266 22.3031H22.791L24.2474 20.85L20.9186 21.016L17.569 24.5243H14.6562L17.569 25.3131L20.0864 23.5486Z" fill="white"/>
<path d="M15.9688 30.8764L18.6942 27.3266L21.3364 25.1469L21.8566 23.1748L18.3405 25.5828L15.9688 30.8764Z" fill="white"/>
<path d="M44.4304 17.8605L43.203 19.4175H41.1641L41.9755 20.144H43.8271L45.5331 19.1268L48.4874 23.1333L46.1157 17.8605H44.4304Z" fill="white"/>
<path d="M42.2031 20.8085L43.6595 22.2616H45.3031L46.3433 23.5071L48.8607 25.2716L51.7942 24.4828H48.8607L45.5319 20.9745L42.2031 20.8085Z" fill="white"/>
<path d="M47.7581 27.306L50.4627 30.835L48.1118 25.5415L44.5957 23.1334L45.095 25.1263L47.7581 27.306Z" fill="white"/>
<path d="M25.2891 16.8019L24.2488 14.9336H21.6274L18.5898 17.3001L21.8562 15.847L25.2891 16.8019Z" fill="white"/>
<path d="M40.5605 16.8019L43.9726 15.847L47.2389 17.3001L44.2014 14.9336H41.58L40.5605 16.8019Z" fill="white"/>
<path d="M47.9665 29.8594L46.3645 29.112L46.2605 27.5551L45.5531 29.7556L47.0095 30.9803V31.9353L44.3881 29.7971L45.2411 31.5201L44.8042 34.0942L43.2022 36.8759L44.1176 34.198L44.0552 31.2087L41.3505 28.0533L43.223 31.5824L43.1606 34.0942L40.768 31.0426V29.6933L41.5794 26.7455L41.3089 25.1471H40.0814L36.3157 26.704L39.166 27.2437L36.3989 27.0777L38.0425 28.2817L36.1077 28.2194L34.4225 26.1228H32.1547L30.4695 28.2194L28.5346 28.2817L30.1782 27.0777L27.4112 27.2437L30.2615 26.704L26.5166 25.1471H25.2891L25.0186 26.7455L25.83 29.6933V31.0426L23.4166 34.0942L23.3126 31.5824L25.185 28.0533L22.5012 31.2087L22.4596 34.198L23.375 36.8759L21.773 34.0942L21.3361 31.5201L22.1891 29.7971L19.5677 31.9353V30.9803L21.024 29.7556L20.3167 27.5551L20.2126 29.112L18.6106 29.8594L15.2402 35.5058L18.6106 32.5995L19.9422 34.364L20.4207 31.8937V35.0076L21.6482 35.8172L21.9186 37.3948L21.2321 37.8515L19.5053 37.3948L21.2321 38.931L22.6676 38.0176L23.0421 39.9482L22.1891 41.6089L22.3972 42.7299L23.9575 40.5294L22.3972 43.581L22.9797 48.231V45.4908L25.4971 42.0656V35.8587L26.6206 39.45L27.744 36.0248L28.389 37.7893L28.9299 35.7134L30.6984 34.6339L28.9299 36.7721L31.7802 34.6339L32.5708 35.2774H33.9439L34.7553 34.6339L37.6056 36.7721L35.8372 34.6339L37.6056 35.7134L38.1466 37.7893L38.7915 36.0248L39.915 39.45L41.0385 35.8587V42.0656L43.5559 45.4908V48.2102L44.1384 43.5602L42.578 40.5087L44.1384 42.7091L44.3464 41.5881L43.4934 39.9274L43.8679 37.9969L45.3243 38.9102L47.0511 37.3741L45.3243 37.8308L44.6169 37.3741L44.8874 35.7964L46.1149 34.9868V31.873L46.5934 34.3433L47.9457 32.5788V32.5373L51.3161 35.4435L47.9457 29.7971V29.8594H47.9665ZM36.7526 32.4335H35.7956L35.754 32.9109L33.5695 34.4471H32.9869L30.8024 32.9109L30.7608 32.4335H29.8037L27.0783 34.9453L28.7011 31.3332L29.4917 31.2295L31.2185 29.7556H32.1339V30.1915H31.4889L30.74 30.8766V32.2674L31.4889 32.3089L32.3211 32.9524H34.2144L35.0466 32.3089L35.7956 32.2674V30.8766L35.0466 30.1915H34.4017V29.7556H35.3171L37.0439 31.2295L37.8345 31.3332L39.4573 34.9453L36.7526 32.4335Z" fill="#DFEEF7"/>
<path d="M41.1643 7.95871L40.9979 8.12478V8.10402L40.9771 8.14554L37.5234 11.4462L39.4791 10.7612L37.8979 13.4806H35.2765L34.1322 9.16273L35.7758 10.2629L32.9255 4.59576L29.9088 10.3667L31.6772 9.16273L30.5329 13.3975H27.9531L26.1847 10.3252L28.2444 11.0518L24.6035 7.56429L26.6008 15.681H39.1462L40.8522 8.70603L41.1643 7.95871Z" fill="#CCCCCC"/>
<path d="M20.3179 27.555L20.1931 29.1119L18.5911 29.8592L15.2207 35.5057L18.5911 32.5994L19.9434 34.3639L20.422 31.8936V35.0074L21.6495 35.7963L21.9199 37.374L21.2334 37.8307L19.5065 37.374L21.2334 38.9101L22.6689 37.9967L23.0434 39.9273L22.1904 41.588L22.3984 42.709L23.9588 40.5086L22.3984 43.5601L23.0018 48.2309V45.4907L25.5192 42.0655V35.8586L26.6427 39.4498L27.7661 36.0246L28.4111 37.7891L28.952 35.6925L30.7204 34.6338L28.952 36.7719L31.7815 34.6338L32.5929 35.2773H33.966L34.7566 34.6338L37.6069 36.7719L35.8385 34.6338L37.6069 35.6925L38.1478 37.7891L38.7928 36.0246L39.9163 39.4498L41.0397 35.8586V42.0655L43.5571 45.4907V48.2309L44.1397 43.5601L42.6001 40.5086L44.1397 42.709L44.3685 41.588L43.5155 39.9273L43.89 37.9967L45.3256 38.9101L47.0524 37.374L45.3256 37.8307L44.639 37.374L44.847 36.0661L44.8887 35.7963L46.137 35.0074V31.8936L46.6155 34.3639L47.9678 32.5579L51.3382 35.4641L47.9678 29.8592L46.345 29.1119L46.241 27.555L45.5336 29.7554L46.99 30.9802V31.9559L44.3685 29.8177L45.2215 31.5199L44.7846 34.0941L43.1826 36.8757L44.0981 34.1978L44.0356 31.2086L41.3518 28.0532L43.2451 31.5822L43.1826 34.0941L40.7693 31.0425L41.539 33.409L40.1659 32.3503L40.7068 33.4298L39.4585 34.9452L36.7539 32.4333H35.7761L35.7553 32.9108L33.5707 34.447H32.9882L30.8037 32.9108L30.762 32.4333H29.805L27.0796 34.9452L25.1447 34.011L25.7896 31.0425L23.3763 34.0941L23.3139 31.5822L25.1863 28.0532L22.5025 31.2086L22.4608 34.1978L23.3763 36.8757L21.7535 34.0941L21.3374 31.5199L22.1904 29.8177L19.569 31.9559V30.9802L21.0045 29.7554L20.3179 27.555Z" fill="white"/>
<path d="M34.3387 36.2946L33.7978 37.2702H31.6133L31.8837 37.6439H34.6716L35.6078 36.2946H34.3387Z" fill="#D7D7D7"/>
<path d="M28.2444 11.0518L24.6035 7.56427L27.3914 10.7404L28.2444 11.0518Z" fill="#D7ECED"/>
<path d="M25.6646 8.76829L25.2901 8.83056L28.078 15.681H26.6008L24.6035 7.56427L25.6646 8.76829Z" fill="#919191"/>
<path d="M31.4883 21.0159L32.6534 22.7389L32.7782 23.6938H33.652V22.8219L35.046 21.0159L34.1929 22.9672L33.9849 24.6487H32.5493L32.3413 22.9672L31.4883 21.0159Z" fill="#D4E6F2"/>
<path d="M29.8022 17.3832L28.5955 20.1026L30.9465 24.4827L26.4942 22.822L26.0781 21.3481L26.9935 20.5385L26.0781 20.8499L27.0768 19.1892L26.3902 17.3832H29.8022Z" fill="#D4E6F2"/>
<path d="M26.994 20.5385L26.0785 20.8499L27.0772 19.1892L26.3906 17.3832L23.6652 18.8571L26.3906 18.3796L26.3698 19.293L25.0175 21.5142L24.0189 24.2336H22.5209L21.6055 26.2057L23.6652 25.147L26.0785 21.3481L26.994 20.5385Z" fill="white"/>
<path d="M23.8534 21.2234L21.1904 21.348L17.5703 25.313L20.0877 23.5484L21.128 22.3029H22.7924L23.8534 21.2234Z" fill="white"/>
<path d="M29.0139 26.9322L26.6422 26.1018L25.8516 26.517L26.6422 30.8763H29.43L31.0528 29.7554L30.5535 28.6759L28.6602 28.6136L28.5354 28.3022L30.1582 27.0775L27.3911 27.2435L29.0139 26.9322Z" fill="white"/>
<path d="M31.0516 29.7556H31.2389L29.512 31.2502L28.7215 31.3333L27.0779 34.9453L25.143 34.0112L25.788 31.0426V29.6933L24.9766 26.7663L25.247 25.1471H26.4745L30.2402 26.704L29.0127 26.9324L26.641 26.102L25.8504 26.5172L26.641 30.8766H29.4288L31.0516 29.7556Z" fill="#D4E6F2"/>
<path d="M30.9476 24.4827L32.0087 23.4655L31.9254 23.0295L30.7188 24.2958L30.9476 24.4827Z" fill="#D4E6F2"/>
<path d="M41.1624 7.95862L39.1443 15.6809H38.4785L40.7463 8.35304L41.1624 7.95862Z" fill="#D7ECED"/>
<path d="M33.8611 9.3078L34.6517 12.7123H34.2564L33.6738 9.3078H33.8611Z" fill="#D7ECED"/>
<path d="M32.6953 5.0317L34.9215 9.6817L35.7745 10.2629L32.9242 4.59576L32.6953 5.0317Z" fill="#D7ECED"/>
<path d="M28.8687 42.3145L28.0989 43.0619L27.4956 46.0096L27.8285 43.3525L26.3721 48.127L26.9963 44.2036L25.852 48.2308L27.3499 51.6145L25.6231 48.5422L26.1016 45.7398L24.7493 48.0855L24.25 51.6768V46.7362L28.7023 40.9652L28.9727 42.2523L28.8687 42.3145Z" fill="white"/>
<path d="M29.5332 42.3976L31.2392 41.2766L32.8828 46.7569L31.4889 52.777L33.6734 47.3589L32.8828 43.1241L34.1519 42.958L34.2351 45.802L34.6512 42.958L36.3989 42.8958L35.6083 50.3897L37.023 44.9509V40.4877L35.3586 38.1005H34.3392L34.4016 40.633L32.6748 38.1005H31.1768L29.5332 40.4877V42.3976Z" fill="white"/>
<path d="M30.1382 42.0032L29.7638 47.4421L30.7208 50.3068L29.1812 47.7119L28.8691 42.3146L28.9732 42.2523L29.5349 44.951V42.3977L30.1382 42.0032Z" fill="white"/>
<path d="M37.5645 42.3353L41.6838 47.2552L42.308 51.6768V46.7362L37.8349 40.9652L37.5645 42.3353Z" fill="white"/>
<path d="M28.4503 48.5837V49.7878L30.5516 51.6768L28.3671 58.7348L30.0315 51.8429L28.3047 50.1614L28.4295 46.3833L28.4503 48.5837Z" fill="white"/>
<path d="M30.5547 41.7333V46.3833L31.2412 41.2766L30.5547 41.7333Z" fill="white"/>
<path d="M36.3985 42.8958L36.669 40.8199L35.2334 38.827L36.2113 40.8614L34.8381 39.4083L34.5469 40.9652L34.6509 42.9581L36.3985 42.8958Z" fill="white"/>
<path d="M38.3348 43.2487L35.6094 50.3898L37.0241 44.9509L37.8355 40.9652L38.3348 43.2487Z" fill="white"/>
<path d="M38.1035 46.3833L40.2048 47.8157L39.8303 50.7634L39.7055 49.8708L39.3518 51.2616L37.9371 52.5695L38.1867 53.1092L38.1035 54.6869L37.625 52.3619L39.4142 50.4313L39.4975 48.2308L38.1035 46.3833Z" fill="white"/>
<path d="M38.1055 46.3834L38.3343 45.4285L38.9169 46.5494L39.1041 45.989L40.7477 47.193L40.4148 48.2309L39.9363 48.8536L39.6034 47.6496L38.1055 46.3834Z" fill="white"/>
<path d="M34.7539 52.4242L34.9828 54.3548L35.6069 52.7771L37.5626 56.4722L38.1867 58.7349L35.7109 53.1923L34.7539 56.4099V52.4242Z" fill="white"/>
<path d="M30.8438 53.1923L31.6135 54.6869V53.3999L32.7162 53.4206L32.3417 58.7349L34.4846 63.4472L32.1545 59.7313L30.8438 53.1923Z" fill="white"/>
<path d="M30.7204 34.1564L28.7439 35.1321L28.4526 36.1285L27.8077 35.6303L27.5996 35.9001L26.8506 36.9796L26.6426 39.4499L27.766 36.0247L28.411 37.7892L28.9519 35.6926L30.7204 34.6339L28.9519 36.772L31.7814 34.6339L32.5928 35.2774H33.9659L34.7565 34.6339L37.6068 36.772L35.8384 34.6339L37.6068 35.6926L38.1478 37.7892L38.7927 36.0247L39.9162 39.4499L39.4585 35.8379L36.8162 33.3468L37.5652 34.5301L36.4001 33.5959L35.6095 33.9281L36.4001 34.0111H34.174L33.5707 34.447H32.9881L32.0103 33.762L30.7204 34.1564Z" fill="white"/>
<path d="M20.7541 28.9874L18.5279 30.8765L17.0508 33.2015L18.632 31.6446L18.0702 32.5372L18.9232 32.1428L19.6722 33.2015L20.2548 31.7484L22.1896 29.8178L19.5682 31.956V30.9803L21.0037 29.7555L20.7541 28.9874Z" fill="white"/>
<path d="M30.8022 32.9108H30.0324L28.8674 34.3432L29.2419 33.5128L28.4513 34.2601L28.6593 34.7168L28.0976 34.4885L27.0781 34.9452L29.8036 32.4333H30.7606L30.8022 32.9108Z" fill="white"/>
<path d="M21.6277 24.0883L18.9231 25.9981L15.9688 30.8764L18.6942 27.3267L21.3364 25.147L21.6277 24.0883Z" fill="white"/>
<path d="M20.3364 24.9809L19.7539 25.8528L20.7109 25.147H21.3351L21.6264 24.0883L20.3364 24.9809Z" fill="white"/>
<path d="M25.4977 32.3503L23.6252 34.6753L24.2494 39.0554L23.4796 37.1456H22.481L21.8568 38.1005H21.0662L19.5059 37.3739L21.2327 37.8306L21.8568 37.0003L21.6488 35.7962L20.4213 35.0074L21.1911 32.89L21.3367 31.5199L21.7528 34.094L23.3756 36.8757L22.4602 34.1978L22.5018 31.2085L25.1856 28.0532L23.3132 31.5822L23.3756 34.094L25.789 31.0424L25.4977 32.3503Z" fill="white"/>
<path d="M25.5172 42.0655L25.1219 37.4777V40.7161L24.5394 37.2701L24.3314 41.5465L22.3965 43.5601L22.9998 48.2309V45.4907L25.5172 42.0655Z" fill="white"/>
<path d="M22.668 37.9966L23.8539 39.8857L22.3975 42.7089L22.1895 41.5879L23.0425 39.9272L22.668 37.9966Z" fill="white"/>
<path d="M44.8262 24.0467L48.0925 26.2056L50.4643 30.8349L47.7597 27.3059L45.0966 25.1262L44.8262 24.0467Z" fill="white"/>
<path d="M42.9121 21.5142H45.4503L49.0496 24.8564L51.7959 24.4827L48.8624 25.2716L46.3449 23.5071L45.3047 22.2615H43.6611L42.9121 21.5142Z" fill="white"/>
<path d="M39.1876 17.3832L38.293 18.3796L38.7299 19.8535L40.4567 21.4312L42.8701 25.147L44.9506 26.2057L44.0143 24.2336H42.5372L41.5177 21.5142L39.5829 19.9365L39.2084 19.293L39.1876 18.3796L41.913 18.8571L39.1876 17.3832Z" fill="white"/>
<path d="M38.2904 18.3796H35.9395V17.3832H39.185L38.2904 18.3796Z" fill="white"/>
<path d="M46.344 29.1119L46.2192 29.7554L48.0916 31.001L50.4634 34.4262L48.1124 32.0804L46.8017 33.492L46.6145 32.1635L45.699 31.4369L45.5534 34.6961L43.1816 36.8758L44.7836 34.0941L45.2205 31.5199L44.3675 29.8177L46.9889 31.9559V30.9802L45.5326 29.7554L46.24 27.555L46.344 29.1119Z" fill="white"/>
<path d="M44.783 36.5436L42.2031 39.699L42.5984 40.5086L44.138 42.709L44.3669 41.5881L43.5138 39.9273L43.8883 37.9968L45.3239 38.9102L47.0507 37.374L45.3239 37.8307L44.6373 37.374L44.783 36.5436Z" fill="white"/>
<path d="M43.1811 34.0942L41.9744 33.679L43.1811 36.8758L41.3919 34.5093L39.9355 36.9796L39.457 34.9453L40.7053 33.4299L40.1644 32.3504L41.5375 33.4091L40.7677 31.0426L43.1811 34.0942Z" fill="white"/>
<path d="M39.457 34.9454V35.838L39.9148 39.45L39.9356 36.9797L39.457 34.9454Z" fill="white"/>
<path d="M41.0391 39.9688L43.9518 45.0548L43.5565 48.2309V45.4907L41.0391 42.0655V39.9688Z" fill="white"/>
<path d="M32.7159 53.4207L31.967 56.846L31.6133 53.4L32.7159 53.4207Z" fill="white"/>
<defs>
<radialGradient id="paint0_radial" cx="0" cy="0" r="1" gradientUnits="userSpaceOnUse" gradientTransform="translate(32.0505 32.2895) rotate(90) scale(31.2824 31.1736)">
<stop stop-color="#0F2441"/>
<stop offset="1" stop-color="#1E4F94"/>
</radialGradient>
</defs>
</svg>
