<svg width="512" height="100" viewBox="0 0 512 100" fill="none" xmlns="http://www.w3.org/2000/svg">
<path d="M121.259 64.2464H117.137V35.2539H121.259L138.591 57.7362V35.2539H142.713V64.2464H138.591L121.259 41.7641V64.2464Z" fill="#1C4989"/>
<path d="M150.112 35.2539H171.124V39.3986H154.234V47.6879H168.651V51.8326H154.234V60.1017H171.124V64.2464H150.112V35.2539Z" fill="#1C4989"/>
<path d="M177.297 64.2464V35.2539H193.081C197.746 35.2539 200.078 37.6059 200.078 42.31V46.4344C200.078 51.1384 197.746 53.4904 193.081 53.4904H181.419V64.2464H177.297ZM181.419 49.3458H192.86C193.959 49.3458 194.75 49.1032 195.233 48.6179C195.715 48.1327 195.956 47.3375 195.956 46.2322V42.5121C195.956 41.4069 195.715 40.6116 195.233 40.1264C194.75 39.6412 193.959 39.3986 192.86 39.3986H181.419V49.3458Z" fill="#1C4989"/>
<path d="M203.376 35.2539H226.439V39.3986H216.968V64.2464H212.846V39.3986H203.376V35.2539Z" fill="#1C4989"/>
<path d="M231.385 35.2539H235.507V60.1017H251.975V35.2539H256.097V60.1017C256.097 60.6678 255.99 61.2069 255.775 61.7191C255.561 62.2178 255.266 62.6559 254.89 63.0333C254.515 63.4107 254.073 63.7072 253.563 63.9229C253.067 64.1385 252.538 64.2464 251.975 64.2464H235.507C234.944 64.2464 234.408 64.1385 233.899 63.9229C233.403 63.7072 232.967 63.4107 232.592 63.0333C232.216 62.6559 231.921 62.2178 231.707 61.7191C231.492 61.2069 231.385 60.6678 231.385 60.1017V35.2539Z" fill="#1C4989"/>
<path d="M267.638 64.2464H263.516V35.2539H267.638L284.971 57.7362V35.2539H289.093V64.2464H284.971L267.638 41.7641V64.2464Z" fill="#1C4989"/>
<path d="M296.492 35.2539H317.504V39.3986H300.614V47.6879H315.031V51.8326H300.614V60.1017H317.504V64.2464H296.492V35.2539Z" fill="#1C4989"/>
<path d="M350.902 64.2464L340.144 42.9974V64.2464H336.022V35.2539H340.526L351.505 57.0892L362.503 35.2539H366.987V64.2464H362.886V42.9974L352.128 64.2464H350.902Z" fill="#1C4989"/>
<path d="M374.427 35.2539H378.549V60.1017H395.017V35.2539H399.139V60.1017C399.139 60.6678 399.031 61.2069 398.817 61.7191C398.602 62.2178 398.308 62.6559 397.932 63.0333C397.557 63.4107 397.115 63.7072 396.605 63.9229C396.109 64.1385 395.58 64.2464 395.017 64.2464H378.549C377.986 64.2464 377.45 64.1385 376.94 63.9229C376.444 63.7072 376.009 63.4107 375.633 63.0333C375.258 62.6559 374.963 62.2178 374.749 61.7191C374.534 61.2069 374.427 60.6678 374.427 60.1017V35.2539Z" fill="#1C4989"/>
<path d="M404.085 35.2539H427.148V39.3986H417.677V64.2464H413.555V39.3986H404.085V35.2539Z" fill="#1C4989"/>
<path d="M432.094 35.2539H436.216V60.1017H452.684V35.2539H456.806V60.1017C456.806 60.6678 456.698 61.2069 456.484 61.7191C456.27 62.2178 455.975 62.6559 455.599 63.0333C455.224 63.4107 454.782 63.7072 454.272 63.9229C453.776 64.1385 453.247 64.2464 452.684 64.2464H436.216C435.653 64.2464 435.117 64.1385 434.608 63.9229C434.112 63.7072 433.676 63.4107 433.301 63.0333C432.925 62.6559 432.63 62.2178 432.416 61.7191C432.201 61.2069 432.094 60.6678 432.094 60.1017V35.2539Z" fill="#1C4989"/>
<path d="M476.993 35.2539L488.112 64.2464H483.991L481.437 57.5745H468.428L465.874 64.2464H461.752L472.871 35.2539H476.993ZM469.996 53.4298H479.848L474.942 40.6521L469.996 53.4298Z" fill="#1C4989"/>
<path d="M497.181 35.2539V60.1017H512V64.2464H493.059V35.2539H497.181Z" fill="#1C4989"/>
<path d="M41.328 98.2689C37.0528 99.4251 32.5005 97.7651 30.0519 94.1572L3.06042 54.3864C0.61181 50.7785 0.823885 46.0432 3.58572 42.6572L34.03 5.33289C36.7918 1.9469 41.4752 0.680336 45.6307 2.19561L91.4377 18.8987C95.5932 20.414 98.2757 24.3664 98.0821 28.6889L95.9481 76.3363C95.7546 80.6588 92.729 84.3681 88.4538 85.5243L41.328 98.2689Z" fill="url(#paint0_radial)"/>
<path d="M62.9287 33.3795L62.7676 33.1541V33.2507L62.9287 33.3795Z" fill="#888888"/>
<path d="M66.5109 39.0159L69.7389 40.6585L68.2863 37.5988H65.9945L64.4128 33.3796L61.4108 30.9318L60.8298 29.9333L60.7975 28.5162L65.0261 29.257L60.7975 26.9702H40.9457L36.7171 29.257L40.9457 28.5162L40.9134 29.9333L38.8153 33.3796L37.2659 37.5988H34.9418L33.5215 40.6585L36.7171 39.0159L40.4615 33.1219L41.1071 35.4086L48.0149 37.9853L49.6611 36.4071L49.2092 34.217L48.8541 32.6066L50.1776 35.6341L50.5004 38.2429H52.7277L53.0505 35.6341L54.3739 32.6066L53.5992 36.4071L55.2455 37.9853L62.1532 35.4086L62.7665 33.2507V33.1541V33.1219L66.5109 39.0159Z" fill="#DFEEF7"/>
<path d="M56.4727 37.9209V39.7567H58.5063V39.0159H60.4753L62.3152 37.0513L60.4107 37.9209H56.4727Z" fill="white"/>
<path d="M46.7575 39.7567V37.9209H42.8195L40.9473 37.0513L42.7549 39.0159H44.7562V39.7567H46.7575Z" fill="white"/>
<path d="M53.7936 58.405L55.2462 56.3115H48.0156L49.4682 58.405H53.7936Z" fill="#8495B6"/>
<path d="M57.4425 69.7421V62.8174L54.8602 59.1135H53.2785L53.3753 63.0429L50.6962 59.1135H48.3721L45.822 62.8174V69.7421L44.5308 63.5582L37.623 72.512V80.1774L39.4307 74.8309L39.6244 78.3738L44.0143 82.3997L44.1112 84.8475L44.8536 81.2403L42.0776 78.2449L41.9808 74.8309L44.1112 71.9644L43.9175 77.8262L46.5967 80.4351L44.0143 91.128L47.8556 82.5286L49.8892 92.674L53.5045 98.4392L52.0842 92.674L53.9241 81.3369V87.5208L55.4089 82.5286L59.2502 91.128L56.3773 80.6927L59.347 77.8262L59.1211 71.9644L61.2838 74.8309L61.1547 78.2449L58.3786 81.2403L59.1211 84.8475L59.2502 82.3997L63.6079 78.3738L63.8338 74.8309L65.6415 80.1774V72.512L58.7014 63.5582L57.4425 69.7421Z" fill="white"/>
<path d="M35.0713 31.286H37.9765L39.2354 30.191H36.072L34.1675 27.7754H31.5529L27.873 35.9562L32.4567 29.7401L35.0713 31.286Z" fill="white"/>
<path d="M31.1632 36.5361L32.7771 34.6037H35.3595L37.619 32.3491L32.4543 32.6068L27.2574 38.0499H22.7383L27.2574 39.2738L31.1632 36.5361Z" fill="white"/>
<path d="M24.7754 47.9051L29.004 42.3976L33.1034 39.0158L33.9104 35.9561L28.4552 39.6922L24.7754 47.9051Z" fill="white"/>
<path d="M68.9331 27.7109L67.0286 30.1265H63.8652L65.1241 31.2538H67.997L70.6439 29.6756L75.2275 35.8917L71.5477 27.7109H68.9331Z" fill="white"/>
<path d="M65.4766 32.2847L67.7361 34.5392H70.2862L71.9001 36.4717L75.8059 39.2093L80.3573 37.9854H75.8059L70.6412 32.5423L65.4766 32.2847Z" fill="white"/>
<path d="M74.0959 42.3656L78.2922 47.8409L74.6447 39.6279L69.1895 35.8918L69.9642 38.9838L74.0959 42.3656Z" fill="white"/>
<path d="M39.2338 26.0684L37.6198 23.1697H33.5526L28.8398 26.8414L33.9077 24.5868L39.2338 26.0684Z" fill="white"/>
<path d="M62.9277 26.0684L68.2215 24.5868L73.2893 26.8414L68.5766 23.1697H64.5094L62.9277 26.0684Z" fill="white"/>
<path d="M74.4199 46.3273L71.9343 45.1678L71.7729 42.7522L70.6755 46.1662L72.935 48.0665V49.548L68.8678 46.2307L70.1913 48.9039L69.5134 52.8977L67.0279 57.2135L68.4482 53.0587L68.3513 48.4208L64.155 43.5252L67.0602 49.0005L66.9633 52.8977L63.2512 48.1631V46.0696L64.5101 41.4961L64.0905 39.0161H62.186L56.3435 41.4317L60.7657 42.2691L56.4726 42.0114L59.0226 43.8795L56.0207 43.7829L53.406 40.5299H49.8876L47.273 43.7829L44.271 43.8795L46.8211 42.0114L42.5279 42.2691L46.9502 41.4317L41.1399 39.0161H39.2354L38.8158 41.4961L40.0747 46.0696V48.1631L36.3303 52.8977L36.1689 49.0005L39.074 43.5252L34.91 48.4208L34.8454 53.0587L36.2657 57.2135L33.7802 52.8977L33.1024 48.9039L34.4258 46.2307L30.3586 49.548V48.0665L32.6182 46.1662L31.5207 42.7522L31.3593 45.1678L28.8738 46.3273L23.6445 55.0878L28.8738 50.5787L30.9397 53.3164L31.6821 49.4836V54.3148L33.5866 55.5709L34.0062 58.0187L32.941 58.7273L30.2618 58.0187L32.941 60.4021L35.1682 58.9849L35.7493 61.9802L34.4258 64.5569L34.7486 66.2961L37.1696 62.8821L34.7486 67.6166L35.6524 74.8311V70.5797L39.5582 65.2654V55.6353L41.3013 61.2073L43.0444 55.893L44.045 58.6306L44.8843 55.4099L47.628 53.7351L44.8843 57.0525L49.3066 53.7351L50.5332 54.7335H52.6636L53.9225 53.7351L58.3448 57.0525L55.601 53.7351L58.3448 55.4099L59.184 58.6306L60.1847 55.893L61.9278 61.2073L63.6708 55.6353V65.2654L67.5766 70.5797V74.7989L68.4805 67.5844L66.0595 62.8499L68.4805 66.2639L68.8033 64.5247L67.4798 61.948L68.0608 58.9527L70.3204 60.3699L72.9996 57.9865L70.3204 58.6951L69.2229 57.9865L69.6425 55.5387L71.547 54.2826V49.4514L72.2894 53.2841L74.3876 50.5465V50.4821L79.6168 54.9912L74.3876 46.2307V46.3273H74.4199ZM57.0213 50.321H55.5365L55.4719 51.0618L52.0826 53.4452H51.1788L47.7894 51.0618L47.7249 50.321H46.24L42.0114 54.2182L44.5292 48.614L45.7558 48.453L48.435 46.1662H49.8553V46.8426H48.8547L47.6926 47.9055V50.0634L48.8547 50.1278L50.1458 51.1262H53.0832L54.3744 50.1278L55.5365 50.0634V47.9055L54.3744 46.8426H53.3738V46.1662H54.794L57.4732 48.453L58.6998 48.614L61.2176 54.2182L57.0213 50.321Z" fill="#DFEEF7"/>
<path d="M63.8642 12.348L63.606 12.6057V12.5735L63.5737 12.6379L58.2154 17.7589L61.2496 16.6961L58.7964 20.9153H54.7292L52.9538 14.2161L55.5039 15.9231L51.0816 7.13037L46.4011 16.0841L49.1449 14.2161L47.3695 20.7865H43.3669L40.6231 16.0197L43.8188 17.147L38.1699 11.7361L41.2687 24.3293H60.7331L63.38 13.5075L63.8642 12.348Z" fill="#CCCCCC"/>
<path d="M31.5217 42.752L31.328 45.1675L28.8425 46.327L23.6133 55.0875L28.8425 50.5784L30.9407 53.3161L31.6831 49.4834V54.3145L33.5876 55.5384L34.0072 57.9862L32.942 58.6948L30.2628 57.9862L32.942 60.3696L35.1693 58.9525L35.7503 61.9478L34.4268 64.5244L34.7496 66.2636L37.1706 62.8496L34.7496 67.5841L35.6857 74.8309V70.5795L39.5915 65.2652V55.6351L41.3346 61.207L43.0777 55.8927L44.0783 58.6304L44.9176 55.3774L47.6613 53.7348L44.9176 57.0522L49.3076 53.7348L50.5665 54.7332H52.6969L53.9235 53.7348L58.3458 57.0522L55.602 53.7348L58.3458 55.3774L59.185 58.6304L60.1857 55.8927L61.9288 61.207L63.6719 55.6351V65.2652L67.5777 70.5795V74.8309L68.4815 67.5841L66.0928 62.8496L68.4815 66.2636L68.8365 64.5244L67.5131 61.9478L68.0941 58.9525L70.3214 60.3696L73.0006 57.9862L70.3214 58.6948L69.2562 57.9862L69.579 55.9571L69.6435 55.5384L71.5803 54.3145V49.4834L72.3227 53.3161L74.4209 50.514L79.6501 55.0231L74.4209 46.327L71.9031 45.1675L71.7417 42.752L70.6442 46.166L72.9037 48.0662V49.58L68.8365 46.2626L70.16 48.9036L69.4821 52.8974L66.9966 57.2132L68.4169 53.0584L68.3201 48.4205L64.1561 43.5249L67.0935 49.0003L66.9966 52.8974L63.2522 48.1629L64.4466 51.8345L62.3161 50.1919L63.1554 51.8667L61.2186 54.2179L57.0223 50.3208H55.5052L55.4729 51.0616L52.0836 53.4449H51.1798L47.7905 51.0616L47.7259 50.3208H46.2411L42.0125 54.2179L39.0105 52.7686L40.0112 48.1629L36.2668 52.8974L36.1699 49.0003L39.0751 43.5249L34.911 48.4205L34.8465 53.0584L36.2668 57.2132L33.749 52.8974L33.1034 48.9036L34.4268 46.2626L30.3596 49.58V48.0662L32.5869 46.166L31.5217 42.752Z" fill="white"/>
<path d="M53.2755 56.3115L52.4362 57.8253H49.0469L49.4665 58.405H53.7919L55.2445 56.3115H53.2755Z" fill="#D7D7D7"/>
<path d="M43.8188 17.147L38.1699 11.7361L42.4954 16.6639L43.8188 17.147Z" fill="#D7ECED"/>
<path d="M39.8162 13.6041L39.2351 13.7008L43.5606 24.3293H41.2687L38.1699 11.7361L39.8162 13.6041Z" fill="#919191"/>
<path d="M48.8535 32.6064L50.6612 35.2797L50.8548 36.7613H52.2106V35.4085L54.3733 32.6064L53.0498 35.634L52.727 38.2428H50.4998L50.177 35.634L48.8535 32.6064Z" fill="#D4E6F2"/>
<path d="M46.2389 26.9702L44.3667 31.1894L48.0143 37.9853L41.1065 35.4086L40.4609 33.1219L41.8812 31.8658L40.4609 32.3489L42.0103 29.7723L40.9451 26.9702H46.2389Z" fill="#D4E6F2"/>
<path d="M41.8818 31.8658L40.4615 32.3489L42.0109 29.7723L40.9457 26.9702L36.7171 29.257L40.9457 28.5162L40.9134 29.9333L38.8153 33.3796L37.2659 37.5988H34.9418L33.5215 40.6585L36.7171 39.0159L40.4615 33.1219L41.8818 31.8658Z" fill="white"/>
<path d="M37.0081 32.9285L32.8764 33.1217L27.2598 39.2734L31.1656 36.5357L32.7795 34.6033H35.3619L37.0081 32.9285Z" fill="white"/>
<path d="M45.0139 41.7856L41.334 40.4973L40.1074 41.1415L41.334 47.9051H45.6595L48.1772 46.1659L47.4025 44.4911L44.4651 44.3944L44.2714 43.9113L46.7892 42.0111L42.4961 42.2687L45.0139 41.7856Z" fill="white"/>
<path d="M48.1755 46.1663H48.466L45.7869 48.4852L44.5603 48.6141L42.0102 54.2182L39.0082 52.7689L40.0089 48.1631V46.0696L38.75 41.5283L39.1696 39.0161H41.0741L46.9166 41.4317L45.0122 41.786L41.3323 40.4977L40.1057 41.1418L41.3323 47.9055H45.6578L48.1755 46.1663Z" fill="#D4E6F2"/>
<path d="M48.0152 37.9853L49.6615 36.4071L49.5324 35.7307L47.6602 37.6954L48.0152 37.9853Z" fill="#D4E6F2"/>
<path d="M63.8633 12.3479L60.7322 24.3292H59.6992L63.2177 12.9598L63.8633 12.3479Z" fill="#D7ECED"/>
<path d="M52.5366 14.4412L53.7632 19.7232H53.1499L52.2461 14.4412H52.5366Z" fill="#D7ECED"/>
<path d="M50.7266 7.80673L54.1804 15.0213L55.5039 15.9231L51.0816 7.13037L50.7266 7.80673Z" fill="#D7ECED"/>
<path d="M44.7891 65.6516L43.5947 66.8111L42.6586 71.3846L43.1751 67.262L40.9155 74.6698L41.8839 68.5825L40.1086 74.8308L42.4327 80.0807L39.7535 75.3139L40.4959 70.9659L38.3978 74.6054L37.623 80.1773V72.5119L44.5308 63.5581L44.9504 65.555L44.7891 65.6516Z" fill="white"/>
<path d="M45.8203 65.7805L48.4672 64.0413L51.0173 72.5441L48.8546 81.8844L52.2439 73.4782L51.0173 66.9078L52.9863 66.6501L53.1154 71.0626L53.761 66.6501L56.4725 66.5535L55.2459 78.1805L57.4409 69.7421V62.8174L54.8585 59.1135H53.2768L53.3737 63.0429L50.6945 59.1135H48.3704L45.8203 62.8174V65.7805Z" fill="white"/>
<path d="M46.7581 65.1687L46.1771 73.6071L47.6619 78.0518L45.2732 74.0258L44.7891 65.6518L44.9505 65.5552L45.822 69.7422V65.7807L46.7581 65.1687Z" fill="white"/>
<path d="M58.2793 65.6838L64.6706 73.3171L65.639 80.1773V72.5119L58.6989 63.5581L58.2793 65.6838Z" fill="white"/>
<path d="M44.142 75.3784V77.2464L47.4022 80.1773L44.0129 91.128L46.5952 80.435L43.916 77.8262L44.1097 71.9644L44.142 75.3784Z" fill="white"/>
<path d="M47.4043 64.7498V71.9644L48.4695 64.0413L47.4043 64.7498Z" fill="white"/>
<path d="M56.4705 66.5534L56.8902 63.3327L54.6629 60.2407L56.18 63.3971L54.0496 61.1425L53.5977 63.5581L53.7591 66.6501L56.4705 66.5534Z" fill="white"/>
<path d="M59.4747 67.101L55.2461 78.1804L57.4411 69.742L58.7 63.5581L59.4747 67.101Z" fill="white"/>
<path d="M59.1174 71.9644L62.3776 74.1867L61.7966 78.7602L61.6029 77.3753L61.0542 79.5332L58.8592 81.5623L59.2465 82.3997L59.1174 84.8474L58.375 81.2402L61.151 78.2449L61.2801 74.8308L59.1174 71.9644Z" fill="white"/>
<path d="M59.1191 71.9645L59.4742 70.4829L60.378 72.2221L60.6686 71.3525L63.2186 73.2205L62.7022 74.8309L61.9597 75.7971L61.4433 73.9291L59.1191 71.9645Z" fill="white"/>
<path d="M53.9219 81.3369L54.2769 84.3322L55.2453 81.8845L58.2796 87.6174L59.2479 91.1281L55.4067 82.5286L53.9219 87.5208V81.3369Z" fill="white"/>
<path d="M47.8535 82.5286L49.0479 84.8475V82.8506L50.7587 82.8828L50.1776 91.1281L53.5024 98.4392L49.8871 92.674L47.8535 82.5286Z" fill="white"/>
<path d="M47.6607 52.9941L44.5942 54.5079L44.1423 56.0539L43.1416 55.2809L42.8188 55.6996L41.6568 57.3744L41.334 61.2071L43.0771 55.8928L44.0777 58.6305L44.917 55.3775L47.6607 53.7349L44.917 57.0523L49.307 53.7349L50.5659 54.7334H52.6963L53.9229 53.7349L58.3452 57.0523L55.6014 53.7349L58.3452 55.3775L59.1844 58.6305L60.1851 55.8928L61.9282 61.2071L61.218 55.603L57.1186 51.738L58.2806 53.5739L56.473 52.1245L55.2464 52.6399L56.473 52.7687H53.0191L52.083 53.445H51.1792L49.662 52.3822L47.6607 52.9941Z" fill="white"/>
<path d="M32.1969 44.9744L28.743 47.9053L26.4512 51.5125L28.9044 49.097L28.0329 50.4819L29.3563 49.8699L30.5184 51.5125L31.4222 49.258L34.4242 46.2627L30.357 49.5801V48.0663L32.5842 46.1661L32.1969 44.9744Z" fill="white"/>
<path d="M47.7897 51.0616H46.5954L44.7877 53.2839L45.3688 51.9956L44.1422 53.1551L44.465 53.8637L43.5934 53.5094L42.0117 54.2179L46.2403 50.3208H47.7252L47.7897 51.0616Z" fill="white"/>
<path d="M33.5554 37.3733L29.3591 40.3364L24.7754 47.9053L29.004 42.3977L33.1034 39.0159L33.5554 37.3733Z" fill="white"/>
<path d="M31.5523 38.7582L30.6484 40.111L32.1333 39.0159H33.1017L33.5536 37.3733L31.5523 38.7582Z" fill="white"/>
<path d="M39.5581 50.1919L36.653 53.7992L37.6214 60.595L36.4271 57.6319H34.8777L33.9093 59.1135H32.6827L30.2617 57.9862L32.9409 58.6948L33.9093 57.4064L33.5865 55.5384L31.682 54.3145L32.8763 51.0293L33.1023 48.9036L33.7479 52.8974L36.2657 57.2132L34.8454 53.0584L34.9099 48.4205L39.074 43.5249L36.1688 49.0002L36.2657 52.8974L40.0101 48.1628L39.5581 50.1919Z" fill="white"/>
<path d="M39.5899 65.2652L38.9766 58.1473V63.1717L38.0728 57.8252L37.75 64.46L34.748 67.5842L35.6841 74.8309V70.5795L39.5899 65.2652Z" fill="white"/>
<path d="M35.1682 58.9524L37.0081 61.8833L34.7486 66.2636L34.4258 64.5243L35.7492 61.9477L35.1682 58.9524Z" fill="white"/>
<path d="M69.5449 37.3088L74.6127 40.6585L78.2926 47.8408L74.0963 42.3655L69.9646 38.9836L69.5449 37.3088Z" fill="white"/>
<path d="M66.5762 33.3796H70.5143L76.0986 38.5651L80.3595 37.9853L75.8081 39.2092L71.9023 36.4716L70.2883 34.5391H67.7382L66.5762 33.3796Z" fill="white"/>
<path d="M60.8001 26.9702L59.4121 28.5162L60.09 30.8029L62.7692 33.2507L66.5136 39.0159L69.7415 40.6585L68.2889 37.5988H65.9971L64.4154 33.3796L61.4134 30.9318L60.8324 29.9333L60.8001 28.5162L65.0287 29.257L60.8001 26.9702Z" fill="white"/>
<path d="M59.4093 28.5162H55.7617V26.9702H60.7973L59.4093 28.5162Z" fill="white"/>
<path d="M71.9006 45.1675L71.7069 46.166L74.612 48.0984L78.2918 53.4127L74.6443 49.7732L72.6107 51.9634L72.3202 49.9021L70.8999 48.7748L70.674 53.8314L66.9941 57.2132L69.4796 52.8974L70.1575 48.9036L68.8341 46.2626L72.9012 49.58V48.0662L70.6417 46.166L71.7392 42.752L71.9006 45.1675Z" fill="white"/>
<path d="M69.4792 56.698L65.4766 61.5936L66.0899 62.8497L68.4785 66.2637L68.8336 64.5245L67.5102 61.9479L68.0912 58.9525L70.3185 60.3697L72.9977 57.9863L70.3185 58.6949L69.2533 57.9863L69.4792 56.698Z" fill="white"/>
<path d="M66.9948 52.8976L65.1226 52.2535L66.9948 57.2134L64.2188 53.5418L61.9592 57.3745L61.2168 54.2181L63.1536 51.867L62.3143 50.1922L64.4447 51.8348L63.2504 48.1631L66.9948 52.8976Z" fill="white"/>
<path d="M61.2168 54.2183V55.6032L61.927 61.2073L61.9592 57.3746L61.2168 54.2183Z" fill="white"/>
<path d="M63.6699 62.0122L68.189 69.9031L67.5757 74.8309V70.5795L63.6699 65.2652V62.0122Z" fill="white"/>
<path d="M50.7577 82.883L49.5956 88.1974L49.0469 82.8508L50.7577 82.883Z" fill="white"/>
<defs>
<radialGradient id="paint0_radial" cx="0" cy="0" r="1" gradientUnits="userSpaceOnUse" gradientTransform="translate(49.7256 50.0977) rotate(90) scale(48.5352 48.3663)">
<stop stop-color="#0F2441"/>
<stop offset="1" stop-color="#1E4F94"/>
</radialGradient>
</defs>
</svg>
