<svg width="1092" height="214" viewBox="0 0 1092 214" fill="none" xmlns="http://www.w3.org/2000/svg">
<path d="M258.621 137.026H249.83V75.19H258.621L295.588 123.141V75.19H304.379V137.026H295.588L258.621 89.075V137.026Z" fill="#1C4989"/>
<path d="M320.161 75.19H364.975V84.0298H328.952V101.709H359.701V110.549H328.952V128.186H364.975V137.026H320.161V75.19Z" fill="#1C4989"/>
<path d="M378.141 137.026V75.19H411.806C421.755 75.19 426.729 80.2064 426.729 90.2392V99.0359C426.729 109.069 421.755 114.085 411.806 114.085H386.932V137.026H378.141ZM386.932 105.245H411.334C413.678 105.245 415.365 104.728 416.394 103.693C417.423 102.658 417.938 100.962 417.938 98.6047V90.6704C417.938 88.3132 417.423 86.6171 416.394 85.5822C415.365 84.5473 413.678 84.0298 411.334 84.0298H386.932V105.245Z" fill="#1C4989"/>
<path d="M433.762 75.19H482.951V84.0298H462.753V137.026H453.961V84.0298H433.762V75.19Z" fill="#1C4989"/>
<path d="M493.501 75.19H502.292V128.186H537.415V75.19H546.206V128.186C546.206 129.393 545.977 130.543 545.52 131.635C545.062 132.699 544.434 133.633 543.633 134.438C542.832 135.243 541.889 135.876 540.803 136.336C539.745 136.796 538.616 137.026 537.415 137.026H502.292C501.091 137.026 499.948 136.796 498.861 136.336C497.804 135.876 496.874 135.243 496.074 134.438C495.273 133.633 494.644 132.699 494.187 131.635C493.73 130.543 493.501 129.393 493.501 128.186V75.19Z" fill="#1C4989"/>
<path d="M570.822 137.026H562.031V75.19H570.822L607.788 123.141V75.19H616.58V137.026H607.788L570.822 89.075V137.026Z" fill="#1C4989"/>
<path d="M632.361 75.19H677.176V84.0298H641.153V101.709H671.901V110.549H641.153V128.186H677.176V137.026H632.361V75.19Z" fill="#1C4989"/>
<path d="M748.407 137.026L725.464 91.7053V137.026H716.673V75.19H726.279L749.694 121.761L773.152 75.19H782.715V137.026H773.967V91.7053L751.023 137.026H748.407Z" fill="#1C4989"/>
<path d="M798.582 75.19H807.374V128.186H842.496V75.19H851.288V128.186C851.288 129.393 851.059 130.543 850.602 131.635C850.144 132.699 849.515 133.633 848.715 134.438C847.914 135.243 846.971 135.876 845.884 136.336C844.826 136.796 843.697 137.026 842.496 137.026H807.374C806.173 137.026 805.029 136.796 803.943 136.336C802.885 135.876 801.956 135.243 801.155 134.438C800.355 133.633 799.726 132.699 799.269 131.635C798.811 130.543 798.582 129.393 798.582 128.186V75.19Z" fill="#1C4989"/>
<path d="M861.837 75.19H911.026V84.0298H890.827V137.026H882.036V84.0298H861.837V75.19Z" fill="#1C4989"/>
<path d="M921.576 75.19H930.367V128.186H965.49V75.19H974.281V128.186C974.281 129.393 974.052 130.543 973.595 131.635C973.137 132.699 972.508 133.633 971.708 134.438C970.907 135.243 969.964 135.876 968.877 136.336C967.82 136.796 966.69 137.026 965.49 137.026H930.367C929.166 137.026 928.023 136.796 926.936 136.336C925.878 135.876 924.949 135.243 924.149 134.438C923.348 133.633 922.719 132.699 922.262 131.635C921.804 130.543 921.576 129.393 921.576 128.186V75.19Z" fill="#1C4989"/>
<path d="M1017.34 75.19L1041.05 137.026H1032.26L1026.81 122.796H999.068L993.622 137.026H984.831L1008.55 75.19H1017.34ZM1002.41 113.956H1023.43L1012.96 86.7033L1002.41 113.956Z" fill="#1C4989"/>
<path d="M1060.39 75.19V128.186H1092V137.026H1051.6V75.19H1060.39Z" fill="#1C4989"/>
<path d="M88.146 209.589C79.0278 212.055 69.3186 208.515 64.0961 200.82L6.5284 115.996C1.30597 108.301 1.75829 98.2016 7.64878 90.98L72.5807 11.3741C78.4712 4.15238 88.46 1.45103 97.3229 4.68282L195.021 40.3074C203.884 43.5392 209.605 51.969 209.192 61.1881L204.641 162.811C204.228 172.03 197.775 179.941 188.657 182.407L88.146 209.589Z" fill="url(#paint0_radial)"/>
<path d="M134.217 71.1922L133.873 70.7114V70.9175L134.217 71.1922Z" fill="#888888"/>
<path d="M141.856 83.2139L148.741 86.7172L145.643 80.1914H140.755L137.381 71.1926L130.979 65.9719L129.74 63.8424L129.671 60.8199L138.69 62.3999L129.671 57.5226H87.3306L78.3118 62.3999L87.3306 60.8199L87.2618 63.8424L82.7868 71.1926L79.4822 80.1914H74.5253L71.4961 86.7172L78.3118 83.2139L86.2979 70.643L87.6748 75.5202L102.408 81.0157L105.919 77.6497L104.955 72.9786L104.198 69.5439L107.021 76.0011L107.709 81.5652H112.459L113.148 76.0011L115.97 69.5439L114.318 77.6497L117.829 81.0157L132.562 75.5202L133.87 70.9178V70.7117V70.643L141.856 83.2139Z" fill="#DFEEF7"/>
<path d="M120.447 80.8781V84.7936H124.785V83.2137H128.984L132.908 79.0234L128.846 80.8781H120.447Z" fill="white"/>
<path d="M99.7262 84.7936V80.8781H91.327L87.334 79.0234L91.1893 83.2137H95.4578V84.7936H99.7262Z" fill="white"/>
<path d="M114.734 124.567L117.832 120.102H102.41L105.508 124.567H114.734Z" fill="#8495B6"/>
<path d="M122.515 148.747V133.978L117.008 126.078H113.634L113.841 134.459L108.127 126.078H103.17L97.731 133.978V148.747L94.9771 135.558L80.2441 154.654V171.003L84.0995 159.6L84.5126 167.157L93.8756 175.743L94.0821 180.964L95.6656 173.27L89.7449 166.882L89.5383 159.6L94.0821 153.487L93.6691 165.989L99.3833 171.553L93.8756 194.359L102.068 176.018L106.406 197.656L114.116 209.952L111.087 197.656L115.011 173.476V186.665L118.178 176.018L126.371 194.359L120.244 172.102L126.577 165.989L126.095 153.487L130.708 159.6L130.433 166.882L124.512 173.27L126.095 180.964L126.371 175.743L135.665 167.157L136.147 159.6L140.002 171.003V154.654L125.2 135.558L122.515 148.747Z" fill="white"/>
<path d="M74.8018 66.7273H80.9979L83.6829 64.3918H76.936L72.8741 59.2398H67.2976L59.4492 76.6879L69.2253 63.4301L74.8018 66.7273Z" fill="white"/>
<path d="M66.4668 77.9247L69.9091 73.8031H75.4167L80.2359 68.9946L69.2206 69.5441L58.1365 81.1532H48.498L58.1365 83.7636L66.4668 77.9247Z" fill="white"/>
<path d="M52.8418 102.173L61.8606 90.4262L70.604 83.2134L72.3251 76.6876L60.6902 84.656L52.8418 102.173Z" fill="white"/>
<path d="M147.022 59.1023L142.96 64.2543H136.213L138.898 66.6585H145.025L150.67 63.2925L160.447 76.5503L152.598 59.1023H147.022Z" fill="white"/>
<path d="M139.65 68.8571L144.47 73.6657H149.908L153.351 77.7872L161.681 83.6261L171.388 81.0158H161.681L150.666 69.4067L139.65 68.8571Z" fill="white"/>
<path d="M158.037 90.3579L166.987 102.036L159.207 84.519L147.572 76.5506L149.225 83.1451L158.037 90.3579Z" fill="white"/>
<path d="M83.68 55.599L80.2377 49.4166H71.5632L61.5117 57.2476L72.3205 52.4391L83.68 55.599Z" fill="white"/>
<path d="M134.213 55.599L145.504 52.4391L156.312 57.2476L146.261 49.4166H137.586L134.213 55.599Z" fill="white"/>
<path d="M158.724 98.8075L153.423 96.3345L153.079 91.1825L150.738 98.464L155.557 102.517V105.677L146.883 98.6014L149.705 104.303L148.259 112.821L142.958 122.026L145.988 113.164L145.781 103.273L136.831 92.8311L143.027 104.509L142.821 112.821L134.903 102.723V98.2579L137.588 88.5035L136.693 83.2141H132.631L120.17 88.3661L129.602 90.1521L120.446 89.6026L125.885 93.5868L119.482 93.3807L113.905 86.4427H106.401L100.825 93.3807L94.4221 93.5868L99.8609 89.6026L90.7044 90.1521L100.136 88.3661L87.7441 83.2141H83.6822L82.7872 88.5035L85.4722 98.2579V102.723L77.486 112.821L77.1418 104.509L83.3379 92.8311L74.4568 103.273L74.3191 113.164L77.3484 122.026L72.0472 112.821L70.6015 104.303L73.4242 98.6014L64.7496 105.677V102.517L69.5688 98.464L67.228 91.1825L66.8838 96.3345L61.5827 98.8075L50.4297 117.492L61.5827 107.875L65.9888 113.714L67.5723 105.539V115.843L71.6342 118.522L72.5292 123.743L70.2573 125.254L64.5431 123.743L70.2573 128.826L75.0076 125.804L76.2468 132.192L73.4242 137.688L74.1126 141.397L79.276 134.116L74.1126 144.214L76.0403 159.601V150.533L84.3706 139.199V118.66L88.0883 130.544L91.806 119.209L93.9402 125.048L95.7302 118.179L101.582 114.607L95.7302 121.682L105.162 114.607L107.778 116.736H112.322L115.007 114.607L124.439 121.682L118.587 114.607L124.439 118.179L126.229 125.048L128.363 119.209L132.081 130.544L135.798 118.66V139.199L144.129 150.533V159.532L146.056 144.145L140.893 134.047L146.056 141.329L146.745 137.619L143.922 132.124L145.161 125.735L149.981 128.758L155.695 123.674L149.981 125.186L147.64 123.674L148.535 118.454L152.597 115.775V105.471L154.18 113.645L158.655 107.806V107.669L169.808 117.286L158.655 98.6014V98.8075H158.724ZM121.616 107.325H118.449L118.312 108.905L111.083 113.989H109.155L101.926 108.905L101.789 107.325H98.6217L89.6029 115.637L94.9729 103.685L97.589 103.341L103.303 98.464H106.332V99.9065H104.198L101.72 102.173V106.776L104.198 106.913L106.952 109.043H113.217L115.971 106.913L118.449 106.776V102.173L115.971 99.9065H113.837V98.464H116.866L122.58 103.341L125.196 103.685L130.566 115.637L121.616 107.325Z" fill="#DFEEF7"/>
<path d="M136.213 26.336L135.663 26.8855V26.8168L135.594 26.9542L124.165 37.8764L130.637 35.6096L125.405 44.6084H116.73L112.943 30.3202L118.382 33.9609L108.95 15.2077L98.9678 34.3044L104.82 30.3202L101.033 44.3336H92.4963L86.6444 34.167L93.4601 36.5713L81.4121 25.0308L88.0213 51.8899H129.535L135.181 28.809L136.213 26.336Z" fill="#CCCCCC"/>
<path d="M67.2305 91.1819L66.8174 96.3339L61.5163 98.8069L50.3633 117.491L61.5163 107.874L65.9913 113.713L67.5747 105.539V115.843L71.6366 118.453L72.5316 123.674L70.2597 125.185L64.5455 123.674L70.2597 128.757L75.01 125.735L76.2493 132.123L73.4266 137.619L74.115 141.328L79.2785 134.046L74.115 144.144L76.1116 159.6V150.533L84.4419 139.198V118.659L88.1596 130.543L91.8772 119.209L94.0115 125.048L95.8014 118.11L101.653 114.606L95.8014 121.682L105.164 114.606L107.849 116.736H112.393L115.009 114.606L124.441 121.682L118.589 114.606L124.441 118.11L126.231 125.048L128.365 119.209L132.083 130.543L135.801 118.659V139.198L144.131 150.533V159.6L146.059 144.144L140.964 134.046L146.059 141.328L146.816 137.619L143.993 132.123L145.233 125.735L149.983 128.757L155.697 123.674L149.983 125.185L147.711 123.674L148.4 119.346L148.537 118.453L152.668 115.843V105.539L154.251 113.713L158.726 107.737L169.879 117.354L158.726 98.8069L153.356 96.3339L153.012 91.1819L150.671 98.4634L155.491 102.516V105.745L146.816 98.6695L149.639 104.302L148.193 112.82L142.892 122.025L145.921 113.164L145.715 103.272L136.833 92.8306L143.098 104.508L142.892 112.82L134.906 102.722L137.453 110.553L132.909 107.05L134.699 110.622L130.569 115.637L121.619 107.325H118.383L118.314 108.905L111.085 113.988H109.158L101.929 108.905L101.791 107.325H98.6241L89.6053 115.637L83.2027 112.546L85.3369 102.722L77.3508 112.82L77.1443 104.508L83.3404 92.8306L74.4593 103.272L74.3216 113.164L77.3508 122.025L71.9808 112.82L70.6039 104.302L73.4266 98.6695L64.752 105.745V102.516L69.5024 98.4634L67.2305 91.1819Z" fill="white"/>
<path d="M113.628 120.102L111.838 123.331H104.609L105.504 124.567H114.73L117.828 120.102H113.628Z" fill="#D7D7D7"/>
<path d="M93.4601 36.5713L81.4121 25.0309L90.6375 35.5409L93.4601 36.5713Z" fill="#D7ECED"/>
<path d="M84.9232 29.0151L83.684 29.2212L92.9093 51.8899H88.0213L81.4121 25.0309L84.9232 29.0151Z" fill="#919191"/>
<path d="M104.197 69.5436L108.053 75.2452L108.466 78.4051H111.357V75.52L115.97 69.5436L113.147 76.0008L112.459 81.565H107.708L107.02 76.0008L104.197 69.5436Z" fill="#D4E6F2"/>
<path d="M98.6203 57.5226L94.6272 66.5214L102.407 81.0157L87.6738 75.5203L86.2969 70.643L89.3261 67.964L86.2969 68.9944L89.6015 63.499L87.3296 57.5226H98.6203Z" fill="#D4E6F2"/>
<path d="M89.3272 67.964L86.2979 68.9944L89.6025 63.4989L87.3306 57.5226L78.3118 62.3999L87.3306 60.8199L87.2618 63.8424L82.7868 71.1926L79.4822 80.1914H74.5253L71.4961 86.7172L78.3118 83.2139L86.2979 70.643L89.3272 67.964Z" fill="white"/>
<path d="M78.932 70.2303L70.1198 70.6424L58.1406 83.7628L66.4709 77.9239L69.9132 73.8023H75.4209L78.932 70.2303Z" fill="white"/>
<path d="M96.0075 89.1211L88.1591 86.3734L85.543 87.7473L88.1591 102.173H97.3844L102.754 98.4634L101.102 94.8913L94.8371 94.6853L94.4241 93.6549L99.794 89.602L90.6375 90.1515L96.0075 89.1211Z" fill="white"/>
<path d="M102.751 98.464H103.371L97.6568 103.41L95.0406 103.685L89.6018 115.637L83.1992 112.546L85.3334 102.723V98.258L82.6484 88.5722L83.5434 83.2141H87.6053L100.066 88.3661L96.0045 89.1217L88.1561 86.374L85.54 87.7479L88.1561 102.173H97.3814L102.751 98.464Z" fill="#D4E6F2"/>
<path d="M102.408 81.0154L105.919 77.6495L105.643 76.2069L101.65 80.3972L102.408 81.0154Z" fill="#D4E6F2"/>
<path d="M136.209 26.3357L129.531 51.8896H127.328L134.832 27.6409L136.209 26.3357Z" fill="#D7ECED"/>
<path d="M112.051 30.8005L114.667 42.0661H113.359L111.432 30.8005H112.051Z" fill="#D7ECED"/>
<path d="M108.191 16.6503L115.558 32.0375L118.381 33.9609L108.949 15.2077L108.191 16.6503Z" fill="#D7ECED"/>
<path d="M95.5279 140.023L92.9806 142.496L90.9841 152.25L92.0856 143.457L87.2664 159.257L89.3318 146.274L85.5453 159.6L90.5022 170.797L84.788 160.631L86.3714 151.357L81.8964 159.119L80.2441 171.003V154.654L94.9771 135.558L95.8721 139.817L95.5279 140.023Z" fill="white"/>
<path d="M97.7266 140.298L103.372 136.588L108.811 154.723L104.198 174.644L111.427 156.715L108.811 142.702L113.01 142.152L113.286 151.563L114.663 142.152L120.446 141.946L117.83 166.744L122.511 148.747V133.978L117.003 126.078H113.63L113.836 134.459L108.122 126.078H103.165L97.7266 133.978V140.298Z" fill="white"/>
<path d="M99.7269 138.993L98.4877 156.99L101.655 166.47L96.56 157.883L95.5273 140.023L95.8716 139.817L97.7304 148.747V140.298L99.7269 138.993Z" fill="white"/>
<path d="M124.301 140.091L137.932 156.372L139.998 171.003V154.654L125.196 135.558L124.301 140.091Z" fill="white"/>
<path d="M94.1479 160.768V164.752L101.101 171.003L93.8726 194.359L99.3802 171.553L93.666 165.989L94.0791 153.487L94.1479 160.768Z" fill="white"/>
<path d="M101.105 138.1V153.487L103.377 136.588L101.105 138.1Z" fill="white"/>
<path d="M120.442 141.946L121.337 135.077L116.586 128.482L119.822 135.214L115.278 130.406L114.314 135.558L114.659 142.152L120.442 141.946Z" fill="white"/>
<path d="M126.851 143.114L117.832 166.744L122.514 148.747L125.198 135.558L126.851 143.114Z" fill="white"/>
<path d="M126.087 153.487L133.041 158.226L131.802 167.981L131.388 165.027L130.218 169.629L125.537 173.957L126.363 175.743L126.087 180.964L124.504 173.27L130.425 166.882L130.7 159.6L126.087 153.487Z" fill="white"/>
<path d="M126.092 153.487L126.849 150.327L128.777 154.036L129.396 152.182L134.835 156.166L133.734 159.601L132.15 161.661L131.049 157.677L126.092 153.487Z" fill="white"/>
<path d="M115.006 173.476L115.763 179.865L117.829 174.644L124.3 186.872L126.365 194.359L118.173 176.018L115.006 186.666V173.476Z" fill="white"/>
<path d="M102.062 176.018L104.61 180.964V176.705L108.259 176.774L107.019 194.359L114.111 209.952L106.4 197.656L102.062 176.018Z" fill="white"/>
<path d="M101.652 113.027L95.1116 116.255L94.1478 119.552L92.0136 117.904L91.3251 118.797L88.8467 122.369L88.1582 130.543L91.8759 119.209L94.0101 125.048L95.8001 118.11L101.652 114.607L95.8001 121.682L105.163 114.607L107.848 116.736H112.392L115.008 114.607L124.44 121.682L118.588 114.607L124.44 118.11L126.23 125.048L128.364 119.209L132.082 130.543L130.567 118.591L121.824 110.348L124.302 114.263L120.447 111.172L117.831 112.271L120.447 112.546H113.08L111.084 113.988H109.156L105.92 111.721L101.652 113.027Z" fill="white"/>
<path d="M68.6725 95.9219L61.306 102.173L56.418 109.867L61.6502 104.715L59.7914 107.668L62.6141 106.363L65.0925 109.867L67.0202 105.058L73.4228 98.6696L64.7483 105.745V102.516L69.4986 98.4636L68.6725 95.9219Z" fill="white"/>
<path d="M101.929 108.905H99.3816L95.5262 113.645L96.7655 110.897L94.1493 113.37L94.8378 114.881L92.9789 114.126L89.6055 115.637L98.6243 107.325H101.791L101.929 108.905Z" fill="white"/>
<path d="M71.5678 79.7103L62.6179 86.0301L52.8418 102.173L61.8606 90.4265L70.604 83.2137L71.5678 79.7103Z" fill="white"/>
<path d="M67.2968 82.6641L65.3691 85.5493L68.536 83.2137H70.6014L71.5652 79.7103L67.2968 82.6641Z" fill="white"/>
<path d="M84.3705 107.05L78.1744 114.744L80.2398 129.238L77.6925 122.918H74.3879L72.3225 126.078H69.7064L64.543 123.674L70.2572 125.185L72.3225 122.437L71.6341 118.453L67.5722 115.843L70.1195 108.836L70.6014 104.302L71.9783 112.82L77.3483 122.025L74.3191 113.164L74.4567 103.272L83.3378 92.8305L77.1417 104.508L77.3483 112.82L85.3344 102.722L84.3705 107.05Z" fill="white"/>
<path d="M84.4382 139.198L83.1301 124.017V134.733L81.2024 123.33L80.514 137.481L74.1113 144.144L76.1079 159.6V150.533L84.4382 139.198Z" fill="white"/>
<path d="M75.0073 125.734L78.9315 131.986L74.1123 141.328L73.4238 137.618L76.2465 132.123L75.0073 125.734Z" fill="white"/>
<path d="M148.328 79.5728L159.137 86.7169L166.985 102.036L158.035 90.3577L149.223 83.1448L148.328 79.5728Z" fill="white"/>
<path d="M141.996 71.1926H150.395L162.306 82.2522L171.393 81.0157L161.686 83.626L153.356 77.7871L149.913 73.6655H144.475L141.996 71.1926Z" fill="white"/>
<path d="M129.675 57.5226L126.715 60.8199L128.161 65.6971L133.875 70.9178L141.861 83.2139L148.745 86.7172L145.647 80.1914H140.759L137.386 71.1926L130.983 65.9719L129.744 63.8424L129.675 60.8199L138.694 62.3999L129.675 57.5226Z" fill="white"/>
<path d="M126.709 60.8199H118.93V57.5226H129.67L126.709 60.8199Z" fill="white"/>
<path d="M153.351 96.3339L152.938 98.4634L159.134 102.585L166.983 113.919L159.203 106.157L154.866 110.828L154.246 106.432L151.217 104.028L150.735 114.812L142.887 122.025L148.188 112.82L149.634 104.302L146.811 98.6695L155.485 105.745V102.516L150.666 98.4634L153.007 91.1819L153.351 96.3339Z" fill="white"/>
<path d="M148.187 120.926L139.65 131.368L140.958 134.047L146.053 141.328L146.81 137.619L143.988 132.123L145.227 125.735L149.977 128.757L155.691 123.674L149.977 125.185L147.705 123.674L148.187 120.926Z" fill="white"/>
<path d="M142.888 112.821L138.895 111.447L142.888 122.026L136.967 114.195L132.148 122.369L130.564 115.637L134.695 110.623L132.905 107.05L137.449 110.554L134.902 102.723L142.888 112.821Z" fill="white"/>
<path d="M130.564 115.637V118.591L132.079 130.544L132.148 122.369L130.564 115.637Z" fill="white"/>
<path d="M135.797 132.26L145.435 149.09L144.127 159.6V150.533L135.797 139.198V132.26Z" fill="white"/>
<path d="M108.258 176.774L105.78 188.108L104.609 176.705L108.258 176.774Z" fill="white"/>
<defs>
<radialGradient id="paint0_radial" cx="0" cy="0" r="1" gradientUnits="userSpaceOnUse" gradientTransform="translate(106.057 106.849) rotate(90) scale(103.516 103.156)">
<stop stop-color="#0F2441"/>
<stop offset="1" stop-color="#1E4F94"/>
</radialGradient>
</defs>
</svg>
