<svg width="330" height="64" viewBox="0 0 330 64" fill="none" xmlns="http://www.w3.org/2000/svg">
<path d="M78.1548 41.1177H75.498V22.5625H78.1548L89.326 36.9512V22.5625H91.9827V41.1177H89.326L78.1548 26.729V41.1177Z" fill="white"/>
<path d="M96.7519 22.5625H110.295V25.2151H99.4086V30.5203H108.701V33.1729H99.4086V38.4651H110.295V41.1177H96.7519V22.5625Z" fill="white"/>
<path d="M114.273 41.1177V22.5625H124.447C127.453 22.5625 128.957 24.0678 128.957 27.0784V29.718C128.957 32.7286 127.453 34.2339 124.447 34.2339H116.93V41.1177H114.273ZM116.93 31.5813H124.304C125.013 31.5813 125.522 31.426 125.833 31.1155C126.144 30.8049 126.3 30.296 126.3 29.5886V27.2078C126.3 26.5004 126.144 25.9915 125.833 25.6809C125.522 25.3704 125.013 25.2151 124.304 25.2151H116.93V31.5813Z" fill="white"/>
<path d="M131.082 22.5625H145.947V25.2151H139.843V41.1177H137.186V25.2151H131.082V22.5625Z" fill="white"/>
<path d="M149.135 22.5625H151.792V38.4651H162.405V22.5625H165.062V38.4651C165.062 38.8274 164.993 39.1724 164.855 39.5002C164.717 39.8194 164.527 40.0998 164.285 40.3413C164.043 40.5828 163.758 40.7726 163.429 40.9106C163.11 41.0487 162.768 41.1177 162.405 41.1177H151.792C151.429 41.1177 151.083 41.0487 150.755 40.9106C150.435 40.7726 150.154 40.5828 149.912 40.3413C149.67 40.0998 149.48 39.8194 149.342 39.5002C149.204 39.1724 149.135 38.8274 149.135 38.4651V22.5625Z" fill="white"/>
<path d="M172.501 41.1177H169.844V22.5625H172.501L183.672 36.9512V22.5625H186.329V41.1177H183.672L172.501 26.729V41.1177Z" fill="white"/>
<path d="M191.098 22.5625H204.641V25.2151H193.755V30.5203H203.047V33.1729H193.755V38.4651H204.641V41.1177H191.098V22.5625Z" fill="white"/>
<path d="M226.167 41.1177L219.234 27.5183V41.1177H216.577V22.5625H219.48L226.556 36.5371L233.645 22.5625H236.535V41.1177H233.891V27.5183L226.958 41.1177H226.167Z" fill="white"/>
<path d="M241.33 22.5625H243.986V38.4651H254.6V22.5625H257.257V38.4651C257.257 38.8274 257.188 39.1724 257.05 39.5002C256.912 39.8194 256.722 40.0998 256.48 40.3413C256.238 40.5828 255.953 40.7726 255.624 40.9106C255.305 41.0487 254.963 41.1177 254.6 41.1177H243.986C243.624 41.1177 243.278 41.0487 242.95 40.9106C242.63 40.7726 242.349 40.5828 242.107 40.3413C241.865 40.0998 241.675 39.8194 241.537 39.5002C241.399 39.1724 241.33 38.8274 241.33 38.4651V22.5625Z" fill="white"/>
<path d="M260.445 22.5625H275.31V25.2151H269.206V41.1177H266.549V25.2151H260.445V22.5625Z" fill="white"/>
<path d="M278.498 22.5625H281.155V38.4651H291.769V22.5625H294.425V38.4651C294.425 38.8274 294.356 39.1724 294.218 39.5002C294.08 39.8194 293.89 40.0998 293.648 40.3413C293.406 40.5828 293.121 40.7726 292.793 40.9106C292.473 41.0487 292.132 41.1177 291.769 41.1177H281.155C280.792 41.1177 280.446 41.0487 280.118 40.9106C279.798 40.7726 279.518 40.5828 279.276 40.3413C279.034 40.0998 278.844 39.8194 278.705 39.5002C278.567 39.1724 278.498 38.8274 278.498 38.4651V22.5625Z" fill="white"/>
<path d="M307.437 22.5625L314.604 41.1177H311.947L310.301 36.8477H301.916L300.27 41.1177H297.614L304.78 22.5625H307.437ZM302.927 34.1951H309.277L306.115 26.0173L302.927 34.1951Z" fill="white"/>
<path d="M320.448 22.5625V38.4651H330V41.1177H317.792V22.5625H320.448Z" fill="white"/>
<path d="M26.638 62.8921C23.8825 63.6321 20.9484 62.5697 19.3702 60.2606L1.97333 34.8073C0.395124 32.4982 0.531813 29.4677 2.3119 27.3006L21.9342 3.41305C23.7143 1.24602 26.7329 0.435415 29.4112 1.40519L58.9353 12.0952C61.6136 13.0649 63.3426 15.5945 63.2178 18.3609L61.8424 48.8552C61.7176 51.6216 59.7675 53.9956 57.0121 54.7355L26.638 62.8921Z" fill="url(#paint0_radial)"/>
<path d="M40.5596 21.3637L40.4551 21.2186V21.2808L40.5596 21.3637Z" fill="#888888"/>
<path d="M42.8682 24.9702L44.9487 26.0215L44.0125 24.0633H42.5353L41.5159 21.363L39.581 19.7964L39.2065 19.1574L39.1857 18.2504L41.9112 18.7245L39.1857 17.261H26.3906L23.6652 18.7245L26.3906 18.2504L26.3698 19.1574L25.0175 21.363L24.0189 24.0633H22.5209L21.6055 26.0215L23.6652 24.9702L26.0785 21.1981L26.4947 22.6616L30.9469 24.3106L32.008 23.3006L31.7167 21.8989L31.4879 20.8683L32.3409 22.8059L32.5489 24.4755H33.9845L34.1925 22.8059L35.0455 20.8683L34.5462 23.3006L35.6073 24.3106L40.0595 22.6616L40.4548 21.2805V21.2187V21.1981L42.8682 24.9702Z" fill="#DFEEF7"/>
<path d="M36.3984 24.2694V25.4443H37.7092V24.9702H38.9783L40.1641 23.7128L38.9366 24.2694H36.3984Z" fill="white"/>
<path d="M30.1375 25.4443V24.2694H27.5993L26.3926 23.7128L27.5577 24.9702H28.8476V25.4443H30.1375Z" fill="white"/>
<path d="M34.6733 37.3792L35.6095 36.0394H30.9492L31.8854 37.3792H34.6733Z" fill="#8495B6"/>
<path d="M37.0243 44.6349V40.2031L35.3599 37.8326H34.3404L34.4029 40.3474L32.676 37.8326H31.1781L29.5345 40.2031V44.6349L28.7023 40.6772L24.25 46.4076V51.3135L25.4151 47.8918L25.5399 50.1592L28.3694 52.7358L28.4318 54.3024L28.9103 51.9938L27.1211 50.0767L27.0587 47.8918L28.4318 46.0572L28.307 49.8088L30.0338 51.4784L28.3694 58.3219L30.8452 52.8183L32.1559 59.3114L34.4861 63.0011L33.5706 59.3114L34.7565 52.0556V56.0133L35.7136 52.8183L38.1894 58.3219L36.3377 51.6433L38.2518 49.8088L38.1061 46.0572L39.5001 47.8918L39.4169 50.0767L37.6276 51.9938L38.1061 54.3024L38.1894 52.7358L40.998 50.1592L41.1437 47.8918L42.3088 51.3135V46.4076L37.8357 40.6772L37.0243 44.6349Z" fill="white"/>
<path d="M22.6044 20.0231H24.4768L25.2882 19.3222H23.2493L22.0218 17.7762H20.3366L17.9648 23.0119L20.9192 19.0336L22.6044 20.0231Z" fill="white"/>
<path d="M20.0864 23.3831L21.1266 22.1463H22.791L24.2474 20.7034L20.9186 20.8683L17.569 24.3519H14.6562L17.569 25.1352L20.0864 23.3831Z" fill="white"/>
<path d="M15.9688 30.6593L18.6942 27.1345L21.3364 24.9701L21.8566 23.0119L18.3405 25.403L15.9688 30.6593Z" fill="white"/>
<path d="M44.4304 17.735L43.203 19.281H41.1641L41.9755 20.0024H43.8271L45.5331 18.9924L48.4874 22.9707L46.1157 17.735H44.4304Z" fill="white"/>
<path d="M42.2031 20.6622L43.6595 22.1051H45.3031L46.3433 23.3419L48.8607 25.094L51.7942 24.3107H48.8607L45.5319 20.8271L42.2031 20.6622Z" fill="white"/>
<path d="M47.7581 27.114L50.4627 30.6182L48.1118 25.3619L44.5957 22.9708L45.095 24.9496L47.7581 27.114Z" fill="white"/>
<path d="M25.2891 16.6838L24.2488 14.8286H21.6274L18.5898 17.1785L21.8562 15.7356L25.2891 16.6838Z" fill="white"/>
<path d="M40.5605 16.6838L43.9726 15.7356L47.2389 17.1785L44.2014 14.8286H41.58L40.5605 16.6838Z" fill="white"/>
<path d="M47.9665 29.6495L46.3645 28.9074L46.2605 27.3614L45.5531 29.5464L47.0095 30.7626V31.7108L44.3881 29.5876L45.2411 31.2985L44.8042 33.8545L43.2022 36.6167L44.1176 33.9576L44.0552 30.9893L41.3505 27.8562L43.223 31.3604L43.1606 33.8545L40.768 30.8244V29.4846L41.5794 26.5575L41.3089 24.9703H40.0814L36.3157 26.5163L39.166 27.0522L36.3989 26.8873L38.0425 28.0829L36.1077 28.0211L34.4225 25.9391H32.1547L30.4695 28.0211L28.5346 28.0829L30.1782 26.8873L27.4112 27.0522L30.2615 26.5163L26.5166 24.9703H25.2891L25.0186 26.5575L25.83 29.4846V30.8244L23.4166 33.8545L23.3126 31.3604L25.185 27.8562L22.5012 30.9893L22.4596 33.9576L23.375 36.6167L21.773 33.8545L21.3361 31.2985L22.1891 29.5876L19.5677 31.7108V30.7626L21.024 29.5464L20.3167 27.3614L20.2126 28.9074L18.6106 29.6495L15.2402 35.2562L18.6106 32.3704L19.9422 34.1225L20.4207 31.6695V34.7615L21.6482 35.5654L21.9186 37.132L21.2321 37.5855L19.5053 37.132L21.2321 38.6573L22.6676 37.7504L23.0421 39.6674L22.1891 41.3164L22.3972 42.4295L23.9575 40.2445L22.3972 43.2746L22.9797 47.8919V45.171L25.4971 41.7699V35.6066L26.6206 39.1727L27.744 35.7715L28.389 37.5236L28.9299 35.4623L30.6984 34.3905L28.9299 36.5136L31.7802 34.3905L32.5708 35.0295H33.9439L34.7553 34.3905L37.6056 36.5136L35.8372 34.3905L37.6056 35.4623L38.1466 37.5236L38.7915 35.7715L39.915 39.1727L41.0385 35.6066V41.7699L43.5559 45.171V47.8713L44.1384 43.254L42.578 40.2239L44.1384 42.4089L44.3464 41.2958L43.4934 39.6468L43.8679 37.7298L45.3243 38.6367L47.0511 37.1114L45.3243 37.5649L44.6169 37.1114L44.8874 35.5448L46.1149 34.7409V31.6489L46.5934 34.1019L47.9457 32.3498V32.3085L51.3161 35.1944L47.9457 29.5876V29.6495H47.9665ZM36.7526 32.2055H35.7956L35.754 32.6796L33.5695 34.2049H32.9869L30.8024 32.6796L30.7608 32.2055H29.8037L27.0783 34.6997L28.7011 31.113L29.4917 31.0099L31.2185 29.5464H32.1339V29.9793H31.4889L30.74 30.6595V32.0406L31.4889 32.0818L32.3211 32.7208H34.2144L35.0466 32.0818L35.7956 32.0406V30.6595L35.0466 29.9793H34.4017V29.5464H35.3171L37.0439 31.0099L37.8345 31.113L39.4573 34.6997L36.7526 32.2055Z" fill="#DFEEF7"/>
<path d="M41.1643 7.90272L40.9979 8.06762V8.04701L40.9771 8.08823L37.5234 11.3657L39.4791 10.6855L37.8979 13.3858H35.2765L34.1322 9.09827L35.7758 10.1908L32.9255 4.56342L29.9088 10.2938L31.6772 9.09827L30.5329 13.3033H27.9531L26.1847 10.2526L28.2444 10.974L24.6035 7.51107L26.6008 15.5707H39.1462L40.8522 8.64478L41.1643 7.90272Z" fill="#CCCCCC"/>
<path d="M20.3179 27.3613L20.1931 28.9072L18.5911 29.6493L15.2207 35.256L18.5911 32.3702L19.9434 34.1223L20.422 31.6694V34.7613L21.6495 35.5446L21.9199 37.1112L21.2334 37.5647L19.5065 37.1112L21.2334 38.6366L22.6689 37.7296L23.0434 39.6466L22.1904 41.2956L22.3984 42.4087L23.9588 40.2238L22.3984 43.2539L23.0018 47.8918V45.1709L25.5192 41.7697V35.6065L26.6427 39.1725L27.7661 35.7714L28.4111 37.5235L28.952 35.4415L30.7204 34.3903L28.952 36.5134L31.7815 34.3903L32.5929 35.0293H33.966L34.7566 34.3903L37.6069 36.5134L35.8385 34.3903L37.6069 35.4415L38.1478 37.5235L38.7928 35.7714L39.9163 39.1725L41.0397 35.6065V41.7697L43.5571 45.1709V47.8918L44.1397 43.2539L42.6001 40.2238L44.1397 42.4087L44.3685 41.2956L43.5155 39.6466L43.89 37.7296L45.3256 38.6366L47.0524 37.1112L45.3256 37.5647L44.639 37.1112L44.847 35.8126L44.8887 35.5446L46.137 34.7613V31.6694L46.6155 34.1223L47.9678 32.329L51.3382 35.2148L47.9678 29.6493L46.345 28.9072L46.241 27.3613L45.5336 29.5462L46.99 30.7624V31.7312L44.3685 29.6081L45.2215 31.2983L44.7846 33.8544L43.1826 36.6165L44.0981 33.9574L44.0356 30.9891L41.3518 27.856L43.2451 31.3602L43.1826 33.8544L40.7693 30.8242L41.539 33.1741L40.1659 32.1229L40.7068 33.1947L39.4585 34.6995L36.7539 32.2053H35.7761L35.7553 32.6794L33.5707 34.2048H32.9882L30.8037 32.6794L30.762 32.2053H29.805L27.0796 34.6995L25.1447 33.7719L25.7896 30.8242L23.3763 33.8544L23.3139 31.3602L25.1863 27.856L22.5025 30.9891L22.4608 33.9574L23.3763 36.6165L21.7535 33.8544L21.3374 31.2983L22.1904 29.6081L19.569 31.7312V30.7624L21.0045 29.5462L20.3179 27.3613Z" fill="white"/>
<path d="M34.3387 36.0394L33.7978 37.0082H31.6133L31.8837 37.3792H34.6716L35.6078 36.0394H34.3387Z" fill="#D7D7D7"/>
<path d="M28.2444 10.9741L24.6035 7.51111L27.3914 10.6649L28.2444 10.9741Z" fill="#D7ECED"/>
<path d="M25.6646 8.70666L25.2901 8.7685L28.078 15.5708H26.6008L24.6035 7.51111L25.6646 8.70666Z" fill="#919191"/>
<path d="M31.4883 20.8681L32.6534 22.579L32.7782 23.5272H33.652V22.6614L35.046 20.8681L34.1929 22.8057L33.9849 24.4754H32.5493L32.3413 22.8057L31.4883 20.8681Z" fill="#D4E6F2"/>
<path d="M29.8022 17.261L28.5955 19.9613L30.9465 24.3106L26.4942 22.6616L26.0781 21.1981L26.9935 20.3942L26.0781 20.7034L27.0768 19.0543L26.3902 17.261H29.8022Z" fill="#D4E6F2"/>
<path d="M26.994 20.3942L26.0785 20.7033L27.0772 19.0543L26.3906 17.261L23.6652 18.7245L26.3906 18.2504L26.3698 19.1574L25.0175 21.363L24.0189 24.0633H22.5209L21.6055 26.0215L23.6652 24.9702L26.0785 21.1981L26.994 20.3942Z" fill="white"/>
<path d="M23.8534 21.0742L21.1904 21.1979L17.5703 25.135L20.0877 23.3829L21.128 22.1461H22.7924L23.8534 21.0742Z" fill="white"/>
<path d="M29.0139 26.7428L26.6422 25.9183L25.8516 26.3305L26.6422 30.6592H29.43L31.0528 29.5461L30.5535 28.4743L28.6602 28.4124L28.5354 28.1032L30.1582 26.8871L27.3911 27.052L29.0139 26.7428Z" fill="white"/>
<path d="M31.0516 29.5464H31.2389L29.512 31.0306L28.7215 31.113L27.0779 34.6997L25.143 33.7721L25.788 30.8244V29.4846L24.9766 26.5782L25.247 24.9703H26.4745L30.2402 26.5163L29.0127 26.7431L26.641 25.9185L25.8504 26.3308L26.641 30.6595H29.4288L31.0516 29.5464Z" fill="#D4E6F2"/>
<path d="M30.9476 24.3105L32.0087 23.3005L31.9254 22.8676L30.7188 24.125L30.9476 24.3105Z" fill="#D4E6F2"/>
<path d="M41.1624 7.90265L39.1443 15.5707H38.4785L40.7463 8.2943L41.1624 7.90265Z" fill="#D7ECED"/>
<path d="M33.8611 9.24237L34.6517 12.6229H34.2564L33.6738 9.24237H33.8611Z" fill="#D7ECED"/>
<path d="M32.6953 4.99629L34.9215 9.61359L35.7745 10.1908L32.9242 4.56342L32.6953 4.99629Z" fill="#D7ECED"/>
<path d="M28.8687 42.017L28.0989 42.7591L27.4956 45.6861L27.8285 43.0477L26.3721 47.7887L26.9963 43.8928L25.852 47.8917L27.3499 51.2516L25.6231 48.2009L26.1016 45.4182L24.7493 47.7474L24.25 51.3135V46.4076L28.7023 40.6772L28.9727 41.9552L28.8687 42.017Z" fill="white"/>
<path d="M29.5332 42.0995L31.2392 40.9864L32.8828 46.4282L31.4889 52.406L33.6734 47.026L32.8828 42.821L34.1519 42.6561L34.2351 45.48L34.6512 42.6561L36.3989 42.5942L35.6083 50.0355L37.023 44.6349V40.2031L35.3586 37.8326H34.3392L34.4016 40.3474L32.6748 37.8326H31.1768L29.5332 40.2031V42.0995Z" fill="white"/>
<path d="M30.1382 41.7079L29.7638 47.1085L30.7208 49.9531L29.1812 47.3765L28.8691 42.0171L28.9732 41.9553L29.5349 44.635V42.0996L30.1382 41.7079Z" fill="white"/>
<path d="M37.5645 42.0376L41.6838 46.9229L42.308 51.3135V46.4076L37.8349 40.6772L37.5645 42.0376Z" fill="white"/>
<path d="M28.4503 48.2422V49.4377L30.5516 51.3135L28.3671 58.3219L30.0315 51.4784L28.3047 49.8087L28.4295 46.0572L28.4503 48.2422Z" fill="white"/>
<path d="M30.5547 41.4399V46.0572L31.2412 40.9864L30.5547 41.4399Z" fill="white"/>
<path d="M36.3985 42.5942L36.669 40.5329L35.2334 38.554L36.2113 40.5741L34.8381 39.1312L34.5469 40.6772L34.6509 42.656L36.3985 42.5942Z" fill="white"/>
<path d="M38.3348 42.9446L35.6094 50.0355L37.0241 44.6349L37.8355 40.6772L38.3348 42.9446Z" fill="white"/>
<path d="M38.1035 46.0572L40.2048 47.4795L39.8303 50.4065L39.7055 49.5202L39.3518 50.9012L37.9371 52.1998L38.1867 52.7358L38.1035 54.3024L37.625 51.9937L39.4142 50.0767L39.4975 47.8917L38.1035 46.0572Z" fill="white"/>
<path d="M38.1055 46.0573L38.3343 45.1091L38.9169 46.2222L39.1041 45.6656L40.7477 46.8612L40.4148 47.8918L39.9363 48.5102L39.6034 47.3146L38.1055 46.0573Z" fill="white"/>
<path d="M34.7539 52.0556L34.9828 53.9726L35.6069 52.406L37.5626 56.0751L38.1867 58.3219L35.7109 52.8183L34.7539 56.0133V52.0556Z" fill="white"/>
<path d="M30.8438 52.8182L31.6135 54.3024V53.0244L32.7162 53.045L32.3417 58.3219L34.4846 63.0011L32.1545 59.3113L30.8438 52.8182Z" fill="white"/>
<path d="M30.7204 33.9162L28.7439 34.885L28.4526 35.8744L27.8077 35.3797L27.5996 35.6477L26.8506 36.7196L26.6426 39.1725L27.766 35.7714L28.411 37.5235L28.9519 35.4416L30.7204 34.3903L28.9519 36.5134L31.7814 34.3903L32.5928 35.0293H33.9659L34.7565 34.3903L37.6068 36.5134L35.8384 34.3903L37.6068 35.4416L38.1478 37.5235L38.7927 35.7714L39.9162 39.1725L39.4585 35.5859L36.8162 33.1123L37.5652 34.2872L36.4001 33.3597L35.6095 33.6895L36.4001 33.7719H34.174L33.5707 34.2048H32.9881L32.0103 33.5246L30.7204 33.9162Z" fill="white"/>
<path d="M20.7541 28.7836L18.5279 30.6594L17.0508 32.9681L18.632 31.4221L18.0702 32.3085L18.9232 31.9168L19.6722 32.9681L20.2548 31.5252L22.1896 29.6081L19.5682 31.7313V30.7625L21.0037 29.5463L20.7541 28.7836Z" fill="white"/>
<path d="M30.8022 32.6794H30.0324L28.8674 34.1017L29.2419 33.2771L28.4513 34.0192L28.6593 34.4727L28.0976 34.246L27.0781 34.6994L29.8036 32.2053H30.7606L30.8022 32.6794Z" fill="white"/>
<path d="M21.6277 23.9189L18.9231 25.8153L15.9688 30.6593L18.6942 27.1345L21.3364 24.9701L21.6277 23.9189Z" fill="white"/>
<path d="M20.3364 24.8053L19.7539 25.671L20.7109 24.9702H21.3351L21.6264 23.9189L20.3364 24.8053Z" fill="white"/>
<path d="M25.4977 32.1228L23.6252 34.4315L24.2494 38.7808L23.4796 36.8844H22.481L21.8568 37.8326H21.0662L19.5059 37.1112L21.2327 37.5647L21.8568 36.7401L21.6488 35.5446L20.4213 34.7613L21.1911 32.6588L21.3367 31.2983L21.7528 33.8543L23.3756 36.6165L22.4602 33.9574L22.5018 30.9891L25.1856 27.856L23.3132 31.3602L23.3756 33.8543L25.789 30.8242L25.4977 32.1228Z" fill="white"/>
<path d="M25.5172 41.7697L25.1219 37.2142V40.4299L24.5394 37.0081L24.3314 41.2544L22.3965 43.2539L22.9998 47.8918V45.1709L25.5172 41.7697Z" fill="white"/>
<path d="M22.668 37.7295L23.8539 39.6053L22.3975 42.4086L22.1895 41.2955L23.0425 39.6465L22.668 37.7295Z" fill="white"/>
<path d="M44.8262 23.8776L48.0925 26.0214L50.4643 30.6181L47.7597 27.1139L45.0966 24.9495L44.8262 23.8776Z" fill="white"/>
<path d="M42.9121 21.363H45.4503L49.0496 24.6817L51.7959 24.3106L48.8624 25.0939L46.3449 23.3418L45.3047 22.105H43.6611L42.9121 21.363Z" fill="white"/>
<path d="M39.1876 17.261L38.293 18.2504L38.7299 19.7139L40.4567 21.2805L42.8701 24.9702L44.9506 26.0215L44.0143 24.0633H42.5372L41.5177 21.363L39.5829 19.7964L39.2084 19.1574L39.1876 18.2504L41.913 18.7245L39.1876 17.261Z" fill="white"/>
<path d="M38.2904 18.2504H35.9395V17.261H39.185L38.2904 18.2504Z" fill="white"/>
<path d="M46.344 28.9072L46.2192 29.5462L48.0916 30.783L50.4634 34.1842L48.1124 31.8549L46.8017 33.2566L46.6145 31.9373L45.699 31.2159L45.5534 34.4521L43.1816 36.6165L44.7836 33.8544L45.2205 31.2983L44.3675 29.6081L46.9889 31.7312V30.7624L45.5326 29.5462L46.24 27.3613L46.344 28.9072Z" fill="white"/>
<path d="M44.783 36.2867L42.2031 39.4199L42.5984 40.2238L44.138 42.4087L44.3669 41.2956L43.5138 39.6466L43.8883 37.7296L45.3239 38.6366L47.0507 37.1112L45.3239 37.5647L44.6373 37.1112L44.783 36.2867Z" fill="white"/>
<path d="M43.1811 33.8544L41.9744 33.4422L43.1811 36.6166L41.3919 34.2667L39.9355 36.7196L39.457 34.6996L40.7053 33.1948L40.1644 32.123L41.5375 33.1742L40.7677 30.8243L43.1811 33.8544Z" fill="white"/>
<path d="M39.457 34.6996V35.586L39.9148 39.1726L39.9356 36.7197L39.457 34.6996Z" fill="white"/>
<path d="M41.0391 39.6878L43.9518 44.738L43.5565 47.8918V45.1709L41.0391 41.7697V39.6878Z" fill="white"/>
<path d="M32.7159 53.0451L31.967 56.4463L31.6133 53.0245L32.7159 53.0451Z" fill="white"/>
<defs>
<radialGradient id="paint0_radial" cx="0" cy="0" r="1" gradientUnits="userSpaceOnUse" gradientTransform="translate(32.0505 32.0625) rotate(90) scale(31.0625 31.1736)">
<stop stop-color="#0F2441"/>
<stop offset="1" stop-color="#1E4F94"/>
</radialGradient>
</defs>
</svg>
