<svg width="234" height="234" viewBox="0 0 234 234" fill="none" xmlns="http://www.w3.org/2000/svg">
<path d="M97.2411 229.949C87.1821 232.655 76.471 228.77 70.7096 220.328L7.20159 127.264C1.44028 118.822 1.93927 107.741 8.43758 99.818L80.0697 12.479C86.568 4.55575 97.5876 1.59199 107.365 5.13772L215.144 44.223C224.922 47.7687 231.233 57.0174 230.778 67.132L225.757 178.627C225.301 188.742 218.182 197.421 208.123 200.127L97.2411 229.949Z" fill="url(#paint0_radial)"/>
<path d="M148.062 78.1081L147.683 77.5806V77.8067L148.062 78.1081Z" fill="#888888"/>
<path d="M156.491 91.2972L164.086 95.1409L160.668 87.9811H155.276L151.554 78.1082L144.491 72.3804L143.124 70.044L143.048 66.7279L152.997 68.4613L143.048 63.1104H96.3386L86.3891 68.4613L96.3386 66.7279L96.2626 70.044L91.3259 78.1082L87.6803 87.9811H82.2119L78.8701 95.1409L86.3891 91.2972L95.1993 77.5053L96.7183 82.8562L112.972 88.8855L116.845 85.1926L115.782 80.0677L114.946 76.2994L118.06 83.3838L118.82 89.4885H124.06L124.82 83.3838L127.934 76.2994L126.111 85.1926L129.984 88.8855L146.238 82.8562L147.681 77.8067V77.5806V77.5053L156.491 91.2972Z" fill="#DFEEF7"/>
<path d="M132.872 88.7348V93.0307H137.657V91.2973H142.29L146.619 86.7L142.138 88.7348H132.872Z" fill="white"/>
<path d="M110.015 93.0307V88.7348H100.749L96.3438 86.7L100.597 91.2973H105.306V93.0307H110.015Z" fill="white"/>
<path d="M126.572 136.668L129.989 131.769H112.977L116.394 136.668H126.572Z" fill="#8495B6"/>
<path d="M135.156 163.196V146.993L129.08 138.325H125.358L125.586 147.52L119.282 138.325H113.814L107.814 146.993V163.196L104.776 148.726L88.5225 169.678V187.615L92.7756 175.104L93.2314 183.394L103.561 192.815L103.788 198.543L105.535 190.102L99.0035 183.093L98.7757 175.104L103.788 168.397L103.333 182.113L109.637 188.218L103.561 213.239L112.599 193.117L117.383 216.857L125.89 230.347L122.548 216.857L126.877 190.328V204.798L130.371 193.117L139.409 213.239L132.649 188.821L139.637 182.113L139.105 168.397L144.194 175.104L143.89 183.093L137.358 190.102L139.105 198.543L139.409 192.815L149.662 183.394L150.194 175.104L154.447 187.615V169.678L138.118 148.726L135.156 163.196Z" fill="white"/>
<path d="M82.5198 73.2095H89.3553L92.3173 70.6471H84.8743L80.3932 64.9946H74.2413L65.583 84.1376L76.3679 69.592L82.5198 73.2095Z" fill="white"/>
<path d="M73.3268 85.4944L77.1243 80.9724H83.2003L88.5168 75.6968L76.3648 76.2997L64.1369 89.0366H53.5039L64.1369 91.9005L73.3268 85.4944Z" fill="white"/>
<path d="M58.293 112.098L68.2424 99.2104L77.888 91.297L79.7868 84.1372L66.9512 92.8797L58.293 112.098Z" fill="white"/>
<path d="M162.192 64.8435L157.711 70.496H150.268L153.23 73.1338H159.989L166.217 69.4408L177.002 83.9865L168.344 64.8435H162.192Z" fill="white"/>
<path d="M154.061 75.5464L159.377 80.822H165.377L169.175 85.344L178.364 91.7501L189.073 88.8862H178.364L166.212 76.1493L154.061 75.5464Z" fill="white"/>
<path d="M174.343 99.1354L184.217 111.948L175.634 92.7293L162.799 83.9868L164.622 91.222L174.343 99.1354Z" fill="white"/>
<path d="M92.3133 60.9997L88.5158 54.2168H78.9461L67.8574 62.8085L79.7815 57.5329L92.3133 60.9997Z" fill="white"/>
<path d="M148.062 60.9997L160.517 57.5329L172.441 62.8085L161.353 54.2168H151.783L148.062 60.9997Z" fill="white"/>
<path d="M175.103 108.406L169.255 105.693L168.875 100.04L166.293 108.029L171.609 112.475V115.942L162.039 108.18L165.153 114.435L163.558 123.78L157.71 133.879L161.052 124.157L160.824 113.305L150.951 101.849L157.786 114.661L157.558 123.78L148.824 112.702V107.803L151.786 97.1008L150.799 91.2976H146.318L132.571 96.9501L142.976 98.9096L132.875 98.3067L138.875 102.678L131.811 102.452L125.66 94.8398H117.381L111.229 102.452L104.166 102.678L110.166 98.3067L100.064 98.9096L110.47 96.9501L96.7986 91.2976H92.3176L91.3302 97.1008L94.2922 107.803V112.702L85.4821 123.78L85.1023 114.661L91.9378 101.849L82.1403 113.305L81.9884 124.157L85.3302 133.879L79.482 123.78L77.8871 114.435L81.001 108.18L71.4314 115.942V112.475L76.7478 108.029L74.1655 100.04L73.7858 105.693L67.9377 108.406L55.6338 128.905L67.9377 118.354L72.7985 124.76L74.5453 115.792V127.097L79.0263 130.036L80.0137 135.764L77.5073 137.422L71.2035 135.764L77.5073 141.341L82.7479 138.025L84.115 145.034L81.001 151.063L81.7605 155.133L87.4568 147.144L81.7605 158.223L83.8871 175.105V165.156L93.077 152.721V130.187L97.1783 143.225L101.28 130.789L103.634 137.196L105.609 129.659L112.065 125.74L105.609 133.503L116.014 125.74L118.9 128.076H123.913L126.875 125.74L137.28 133.503L130.824 125.74L137.28 129.659L139.255 137.196L141.609 130.789L145.71 143.225L149.812 130.187V152.721L159.001 165.156V175.029L161.128 158.147L155.432 147.069L161.128 155.057L161.888 150.988L158.774 144.958L160.141 137.949L165.457 141.265L171.761 135.688L165.457 137.346L162.875 135.688L163.862 129.96L168.343 127.021V115.716L170.09 124.685L175.027 118.279V118.128L187.331 128.679L175.027 108.18V108.406H175.103ZM134.166 117.751H130.672L130.52 119.485L122.546 125.062H120.419L112.444 119.485L112.292 117.751H108.799L98.8492 126.87L104.773 113.757L107.659 113.38L113.963 108.029H117.305V109.612H114.951L112.216 112.099V117.148L114.951 117.299L117.989 119.635H124.9L127.938 117.299L130.672 117.148V112.099L127.938 109.612H125.584V108.029H128.925L135.229 113.38L138.115 113.757L144.039 126.87L134.166 117.751Z" fill="#DFEEF7"/>
<path d="M150.27 28.8941L149.663 29.4971V29.4217L149.587 29.5724L136.979 41.5556L144.119 39.0686L138.346 48.9415H128.777L124.599 33.2654L130.599 37.2598L120.194 16.6848L109.182 37.6366L115.637 33.2654L111.46 48.6401H102.042L95.5866 37.4859L103.106 40.1237L89.8145 27.4622L97.1056 56.9303H142.903L149.131 31.6073L150.27 28.8941Z" fill="#CCCCCC"/>
<path d="M74.1682 100.04L73.7125 105.692L67.8644 108.405L55.5605 128.905L67.8644 118.354L72.8011 124.76L74.548 115.791V127.096L79.029 129.96L80.0164 135.688L77.51 137.346L71.2062 135.688L77.51 141.265L82.7506 137.949L84.1177 144.958L81.0037 150.987L81.7632 155.057L87.4594 147.068L81.7632 158.147L83.9658 175.104V165.156L93.1557 152.721V130.186L97.257 143.225L101.358 130.789L103.713 137.195L105.687 129.583L112.143 125.74L105.687 133.502L116.017 125.74L118.979 128.076H123.991L126.877 125.74L137.283 133.502L130.827 125.74L137.283 129.583L139.257 137.195L141.612 130.789L145.713 143.225L149.814 130.186V152.721L159.004 165.156V175.104L161.131 158.147L155.51 147.068L161.131 155.057L161.966 150.987L158.852 144.958L160.219 137.949L165.46 141.265L171.764 135.688L165.46 137.346L162.954 135.688L163.713 130.94L163.865 129.96L168.422 127.096V115.791L170.169 124.76L175.105 118.203L187.409 128.754L175.105 108.405L169.181 105.692L168.802 100.04L166.219 108.029L171.536 112.475V116.017L161.966 108.255L165.08 114.435L163.485 123.78L157.637 133.879L160.979 124.157L160.751 113.304L150.953 101.849L157.865 114.661L157.637 123.78L148.827 112.701L151.637 121.293L146.624 117.449L148.599 121.368L144.042 126.87L134.169 117.751H130.599L130.523 119.484L122.548 125.061H120.422L112.447 119.484L112.295 117.751H108.801L98.8519 126.87L91.7886 123.479L94.143 112.701L85.3329 123.78L85.105 114.661L91.9405 101.849L82.143 113.304L81.9911 124.157L85.3329 133.879L79.4088 123.78L77.8898 114.435L81.0037 108.255L71.434 116.017V112.475L76.6746 108.029L74.1682 100.04Z" fill="white"/>
<path d="M125.354 131.769L123.379 135.311H115.404L116.392 136.668H126.569L129.987 131.769H125.354Z" fill="#D7D7D7"/>
<path d="M103.106 40.1242L89.8145 27.4626L99.9917 38.9937L103.106 40.1242Z" fill="white"/>
<path d="M93.6879 31.8339L92.3208 32.06L102.498 56.9308H97.1056L89.8145 27.4626L93.6879 31.8339Z" fill="#919191"/>
<path d="M114.946 76.2996L119.199 82.555L119.655 86.0218H122.845V82.8564L127.934 76.2996L124.82 83.384L124.06 89.4887H118.82L118.06 83.384L114.946 76.2996Z" fill="white"/>
<path d="M108.795 63.1104L104.39 72.9833L112.972 88.8856L96.7192 82.8563L95.2002 77.5053L98.542 74.566L95.2002 75.6965L98.8458 69.6672L96.3394 63.1104H108.795Z" fill="white"/>
<path d="M98.5411 74.566L95.1993 75.6965L98.8449 69.6672L96.3386 63.1104L86.3891 68.4613L96.3386 66.7279L96.2626 70.044L91.3259 78.1082L87.6803 87.9811H82.2119L78.8701 95.1409L86.3891 91.2972L95.1993 77.5053L98.5411 74.566Z" fill="white"/>
<path d="M87.0774 77.0527L77.3559 77.5049L64.1406 91.8999L73.3305 85.4937L77.128 80.9718H83.204L87.0774 77.0527Z" fill="white"/>
<path d="M105.913 97.7786L97.2542 94.7639L94.3682 96.2712L97.2542 112.098H107.432L113.356 108.028L111.533 104.109L104.621 103.883L104.166 102.753L110.09 98.3061L99.9884 98.909L105.913 97.7786Z" fill="white"/>
<path d="M113.353 108.029H114.037L107.733 113.455L104.847 113.757L98.8467 126.871L91.7834 123.479L94.1378 112.702V107.803L91.1758 97.1762L92.1631 91.2976H96.6442L110.391 96.9501L105.91 97.7791L97.2518 94.7645L94.3657 96.2718L97.2518 112.099H107.429L113.353 108.029Z" fill="white"/>
<path d="M112.974 88.8855L116.848 85.1926L116.544 83.6099L112.139 88.2072L112.974 88.8855Z" fill="white"/>
<path d="M150.265 28.894L142.898 56.9303H140.468L148.746 30.326L150.265 28.894Z" fill="white"/>
<path d="M123.61 33.7927L126.496 46.1528H125.053L122.927 33.7927H123.61Z" fill="white"/>
<path d="M119.355 18.2675L127.482 35.1495L130.596 37.2598L120.191 16.6848L119.355 18.2675Z" fill="white"/>
<path d="M105.383 153.625L102.573 156.338L100.371 167.04L101.586 157.393L96.2693 174.727L98.5478 160.483L94.3706 175.104L99.839 187.389L93.5351 176.235L95.282 166.06L90.3453 174.577L88.5225 187.615V169.678L104.776 148.726L105.763 153.399L105.383 153.625Z" fill="white"/>
<path d="M107.81 153.926L114.037 149.856L120.038 169.753L114.949 191.609L122.924 171.939L120.038 156.564L124.67 155.961L124.974 166.286L126.493 155.961L132.873 155.735L129.987 182.942L135.152 163.196V146.993L129.076 138.325H125.354L125.582 147.52L119.278 138.325H113.81L107.81 146.993V153.926Z" fill="white"/>
<path d="M110.016 152.495L108.649 172.241L112.142 182.641L106.522 173.22L105.383 153.625L105.763 153.399L107.813 163.197V153.927L110.016 152.495Z" fill="white"/>
<path d="M137.126 153.7L152.164 171.562L154.443 187.615V169.678L138.113 148.726L137.126 153.7Z" fill="white"/>
<path d="M103.86 176.385V180.756L111.531 187.615L103.556 213.239L109.632 188.218L103.328 182.113L103.784 168.396L103.86 176.385Z" fill="white"/>
<path d="M111.536 151.515V168.397L114.042 149.857L111.536 151.515Z" fill="white"/>
<path d="M132.871 155.735L133.858 148.199L128.618 140.963L132.187 148.349L127.175 143.074L126.111 148.726L126.491 155.961L132.871 155.735Z" fill="white"/>
<path d="M139.94 157.016L129.99 182.942L135.155 163.196L138.117 148.726L139.94 157.016Z" fill="white"/>
<path d="M139.099 168.396L146.77 173.596L145.403 184.298L144.947 181.058L143.656 186.107L138.492 190.855L139.403 192.815L139.099 198.543L137.353 190.102L143.884 183.093L144.188 175.104L139.099 168.396Z" fill="white"/>
<path d="M139.103 168.397L139.938 164.93L142.065 169L142.748 166.965L148.748 171.336L147.533 175.105L145.786 177.366L144.571 172.995L139.103 168.397Z" fill="white"/>
<path d="M126.872 190.329L127.708 197.338L129.986 191.61L137.125 205.025L139.404 213.24L130.366 193.117L126.872 204.799V190.329Z" fill="white"/>
<path d="M112.593 193.117L115.403 198.543V193.87L119.428 193.946L118.061 213.239L125.884 230.348L117.378 216.857L112.593 193.117Z" fill="white"/>
<path d="M112.14 124.006L104.925 127.549L103.862 131.166L101.507 129.357L100.748 130.337L98.0134 134.256L97.2539 143.225L101.355 130.789L103.71 137.195L105.684 129.584L112.14 125.74L105.684 133.503L116.014 125.74L118.976 128.076H123.988L126.874 125.74L137.279 133.503L130.824 125.74L137.279 129.584L139.254 137.195L141.609 130.789L145.71 143.225L144.039 130.111L134.393 121.067L137.128 125.363L132.874 121.972L129.988 123.177L132.874 123.479H124.748L122.545 125.062H120.419L116.849 122.574L112.14 124.006Z" fill="white"/>
<path d="M75.7573 105.24L67.6307 112.098L62.2383 120.539L68.0105 114.887L65.9598 118.128L69.0738 116.696L71.808 120.539L73.9346 115.264L80.9979 108.255L71.4282 116.017V112.475L76.6687 108.029L75.7573 105.24Z" fill="white"/>
<path d="M112.446 119.484H109.635L105.382 124.684L106.749 121.67L103.863 124.383L104.623 126.041L102.572 125.212L98.8506 126.87L108.8 117.75H112.294L112.446 119.484Z" fill="white"/>
<path d="M78.9513 87.4536L69.0778 94.3873L58.293 112.098L68.2424 99.2108L77.888 91.2973L78.9513 87.4536Z" fill="white"/>
<path d="M74.2399 90.6944L72.1133 93.8598L75.607 91.2973H77.8855L78.9488 87.4536L74.2399 90.6944Z" fill="white"/>
<path d="M93.0776 117.449L86.2421 125.89L88.5206 141.792L85.7105 134.859H82.0649L79.7864 138.326H76.9003L71.2041 135.688L77.5079 137.346L79.7864 134.331L79.0269 129.96L74.5459 127.096L77.356 119.409L77.8877 114.435L79.4067 123.78L85.3308 133.879L81.989 124.157L82.1409 113.304L91.9384 101.848L85.1029 114.661L85.3308 123.78L94.1409 112.701L93.0776 117.449Z" fill="white"/>
<path d="M93.1513 152.721L91.7082 136.065V147.822L89.5816 135.311L88.8221 150.836L81.7588 158.147L83.9613 175.104V165.156L93.1513 152.721Z" fill="white"/>
<path d="M82.7459 137.949L87.075 144.807L81.7585 155.057L80.999 150.987L84.113 144.958L82.7459 137.949Z" fill="white"/>
<path d="M163.634 87.3027L175.558 95.1408L184.216 111.948L174.343 99.1353L164.621 91.2218L163.634 87.3027Z" fill="white"/>
<path d="M156.648 78.1086H165.914L179.054 90.2426L189.079 88.886L178.37 91.7499L169.18 85.3438L165.383 80.8218H159.383L156.648 78.1086Z" fill="white"/>
<path d="M143.056 63.1104L139.79 66.7279L141.385 72.0789L147.689 77.8067L156.499 91.2972L164.094 95.1409L160.676 87.9811H155.284L151.562 78.1082L144.499 72.3804L143.132 70.044L143.056 66.7279L153.005 68.4613L143.056 63.1104Z" fill="white"/>
<path d="M139.784 66.7279H131.202V63.1104H143.05L139.784 66.7279Z" fill="white"/>
<path d="M169.176 105.692L168.72 108.029L175.556 112.551L184.214 124.986L175.632 116.47L170.847 121.595L170.164 116.771L166.822 114.133L166.29 125.966L157.632 133.879L163.48 123.78L165.075 114.435L161.961 108.255L171.531 116.017V112.475L166.214 108.029L168.796 100.04L169.176 105.692Z" fill="white"/>
<path d="M163.478 132.673L154.061 144.129L155.504 147.068L161.124 155.057L161.959 150.987L158.845 144.958L160.212 137.949L165.453 141.265L171.757 135.688L165.453 137.346L162.947 135.688L163.478 132.673Z" fill="white"/>
<path d="M157.633 123.78L153.228 122.273L157.633 133.879L151.101 125.288L145.785 134.256L144.038 126.87L148.595 121.369L146.62 117.449L151.633 121.293L148.823 112.701L157.633 123.78Z" fill="white"/>
<path d="M144.038 126.871V130.111L145.709 143.225L145.785 134.256L144.038 126.871Z" fill="white"/>
<path d="M149.811 145.108L160.444 163.573L159.001 175.104V165.156L149.811 152.72V145.108Z" fill="white"/>
<path d="M119.43 193.946L116.695 206.381L115.404 193.871L119.43 193.946Z" fill="white"/>
<defs>
<radialGradient id="paint0_radial" cx="0" cy="0" r="1" gradientUnits="userSpaceOnUse" gradientTransform="translate(117 117.229) rotate(90) scale(113.572 113.801)">
<stop stop-color="#0F2441"/>
<stop offset="1" stop-color="#1E4F94"/>
</radialGradient>
</defs>
</svg>
