<svg width="200" height="200" viewBox="0 0 200 200" fill="none" xmlns="http://www.w3.org/2000/svg">
<path d="M83.1121 196.538C74.5146 198.85 65.3598 195.53 60.4356 188.314L6.15521 108.773C1.23101 101.557 1.65749 92.0865 7.21161 85.3145L68.4356 10.6658C73.9897 3.89381 83.4082 1.36067 91.765 4.39121L183.884 37.7974C192.241 40.8279 197.635 48.7328 197.246 57.3778L192.954 152.673C192.565 161.318 186.481 168.736 177.883 171.049L83.1121 196.538Z" fill="url(#paint0_radial)"/>
<path d="M126.551 66.7595L126.228 66.3086V66.5018L126.551 66.7595Z" fill="#888888"/>
<path d="M133.756 78.0313L140.247 81.3165L137.326 75.197H132.717L129.536 66.7586L123.499 61.863L122.331 59.8662L122.266 57.0319L130.769 58.5134L122.266 53.9399H82.3434L73.8396 58.5134L82.3434 57.0319L82.2785 59.8662L78.059 66.7586L74.9431 75.197H70.2693L67.4131 81.3165L73.8396 78.0313L81.3697 66.2433L82.6679 70.8168L96.5596 75.97L99.8702 72.8137L98.9614 68.4334L98.2474 65.2126L100.909 71.2677L101.558 76.4853H106.037L106.686 71.2677L109.348 65.2126L107.79 72.8137L111.1 75.97L124.992 70.8168L126.225 66.501V66.3077V66.2433L133.756 78.0313Z" fill="#DFEEF7"/>
<path d="M113.568 75.842V79.5137H117.658V78.0321H121.618L125.318 74.1028L121.488 75.842H113.568Z" fill="white"/>
<path d="M94.0274 79.5137V75.842H86.1078L82.3428 74.1028L85.978 78.0321H90.0027V79.5137H94.0274Z" fill="white"/>
<path d="M108.183 116.809L111.104 112.622H96.5635L99.4846 116.809H108.183Z" fill="#8495B6"/>
<path d="M115.517 139.484V125.634L110.323 118.227H107.143L107.337 126.085L101.949 118.227H97.2757L92.1474 125.634V139.484L89.5509 127.116L75.6592 145.023V160.354L79.2944 149.661L79.6839 156.747L88.5122 164.799L88.707 169.695L90.2 162.48L84.6174 156.489L84.4226 149.661L88.707 143.928L88.3175 155.652L93.7054 160.87L88.5122 182.256L96.237 165.057L100.327 185.348L107.597 196.878L104.741 185.348L108.441 162.673V175.041L111.427 165.057L119.152 182.256L113.374 161.385L119.347 155.652L118.892 143.928L123.241 149.661L122.982 156.489L117.399 162.48L118.892 169.695L119.152 164.799L127.915 156.747L128.37 149.661L132.005 160.354V145.023L118.048 127.116L115.517 139.484Z" fill="white"/>
<path d="M70.5306 62.5726H76.3729L78.9045 60.3824H72.5429L68.713 55.5513H63.4549L56.0547 71.9128L65.2725 59.4806L70.5306 62.5726Z" fill="white"/>
<path d="M62.6702 73.0713L65.9159 69.2063H71.109L75.653 64.6973L65.2667 65.2126L54.8155 76.0988H45.7275L54.8155 78.5466L62.6702 73.0713Z" fill="white"/>
<path d="M49.8232 95.8112L58.327 84.7962L66.5711 78.0326L68.1939 71.9131L57.2235 79.3853L49.8232 95.8112Z" fill="white"/>
<path d="M138.628 55.4216L134.798 60.2528H128.437L130.968 62.5073H136.746L142.069 59.351L151.286 71.7832L143.886 55.4216H138.628Z" fill="white"/>
<path d="M131.672 64.5691L136.216 69.0782H141.344L144.59 72.9431L152.444 78.4184L161.597 75.9706H152.444L142.058 65.0844L131.672 64.5691Z" fill="white"/>
<path d="M149.01 84.731L157.448 95.6816L150.113 79.2556L139.143 71.7834L140.701 77.9673L149.01 84.731Z" fill="white"/>
<path d="M78.9034 52.1367L75.6577 46.3394H67.4785L58.001 53.6827L68.1925 49.1736L78.9034 52.1367Z" fill="white"/>
<path d="M126.551 52.1367L137.197 49.1736L147.388 53.6827L137.911 46.3394H129.732L126.551 52.1367Z" fill="white"/>
<path d="M149.662 92.6543L144.664 90.3353L144.339 85.5042L142.132 92.3322L146.676 96.1327V99.0958L138.497 92.4611L141.158 97.8075L139.795 105.795L134.797 114.427L137.653 106.117L137.458 96.8413L129.019 87.0502L134.862 98.0008L134.667 105.795L127.202 96.326V92.139L129.733 82.992L128.89 78.032H125.06L113.31 82.8631L122.203 84.5379L113.57 84.0226L118.698 87.7587L112.661 87.5655L107.403 81.0595H100.327L95.0691 87.5655L89.0321 87.7587L94.1603 84.0226L85.5267 84.5379L94.42 82.8631L82.7354 78.032H78.9054L78.0615 82.992L80.5932 92.139V96.326L73.0631 105.795L72.7385 98.0008L78.5808 87.0502L70.2069 96.8413L70.0771 106.117L72.9333 114.427L67.9349 105.795L66.5717 97.8075L69.2332 92.4611L61.054 99.0958V96.1327L65.598 92.3322L63.3909 85.5042L63.0663 90.3353L58.0679 92.6543L47.5518 110.175L58.0679 101.157L62.2224 106.632L63.7154 98.967V108.629L67.5454 111.142L68.3893 116.037L66.2471 117.454L60.8592 116.037L66.2471 120.804L70.7262 117.97L71.8947 123.96L69.2332 129.113L69.8823 132.592L74.7509 125.764L69.8823 135.233L71.6999 149.662V141.159L79.5546 130.531V111.27L83.0599 122.414L86.5653 111.786L88.5777 117.261L90.2654 110.819L95.7832 107.47L90.2654 114.105L99.1587 107.47L101.625 109.467H105.91L108.441 107.47L117.335 114.105L111.817 107.47L117.335 110.819L119.023 117.261L121.035 111.786L124.54 122.414L128.046 111.27V130.531L135.9 141.159V149.598L137.718 135.169L132.849 125.699L137.718 132.527L138.367 129.049L135.706 123.896L136.874 117.905L141.418 120.739L146.806 115.973L141.418 117.39L139.211 115.973L140.055 111.077L143.885 108.565V98.9026L145.378 106.568L149.597 101.093V100.964L160.113 109.982L149.597 92.4611V92.6543H149.662ZM114.673 100.642H111.687L111.557 102.123L104.741 106.89H102.924L96.1077 102.123L95.9779 100.642H92.9918L84.4881 108.436L89.5514 97.2278L92.0181 96.9057L97.406 92.3322H100.262V93.685H98.2499L95.913 95.8107V100.126L98.2499 100.255L100.846 102.252H106.754L109.35 100.255L111.687 100.126V95.8107L109.35 93.685H107.338V92.3322H110.194L115.582 96.9057L118.049 97.2278L123.112 108.436L114.673 100.642Z" fill="#DFEEF7"/>
<path d="M128.436 24.6961L127.916 25.2114V25.147L127.851 25.2758L117.075 35.5179L123.177 33.3922L118.244 41.8306H110.065L106.494 28.4322L111.623 31.8462L102.729 14.2607L93.3168 32.1683L98.8346 28.4322L95.2643 41.5729H87.2149L81.6972 32.0394L88.1237 34.294L76.7637 23.4722L82.9955 48.6586H122.139L127.462 27.015L128.436 24.6961Z" fill="#CCCCCC"/>
<path d="M63.3894 85.5042L62.9999 90.3353L58.0015 92.6543L47.4854 110.175L58.0015 101.157L62.2209 106.632L63.7139 98.967V108.629L67.5439 111.077L68.3878 115.973L66.2456 117.39L60.8577 115.973L66.2456 120.739L70.7247 117.905L71.8931 123.896L69.2317 129.049L69.8808 132.527L74.7494 125.699L69.8808 135.169L71.7633 149.662V141.159L79.6179 130.531V111.27L83.1233 122.414L86.6287 111.786L88.641 117.261L90.3288 110.755L95.8465 107.47L90.3288 114.105L99.1572 107.47L101.689 109.467H105.973L108.44 107.47L117.333 114.105L111.815 107.47L117.333 110.755L119.021 117.261L121.033 111.786L124.539 122.414L128.044 111.27V130.531L135.899 141.159V149.662L137.716 135.169L132.913 125.699L137.716 132.527L138.43 129.049L135.769 123.896L136.937 117.905L141.416 120.739L146.804 115.973L141.416 117.39L139.274 115.973L139.923 111.915L140.053 111.077L143.948 108.629V98.967L145.441 106.632L149.661 101.028L160.177 110.046L149.661 92.6543L144.597 90.3353L144.273 85.5042L142.066 92.3322L146.61 96.1327V99.1602L138.43 92.5254L141.092 97.8075L139.729 105.795L134.73 114.427L137.586 106.117L137.392 96.8413L129.018 87.0501L134.925 98.0008L134.73 105.795L127.2 96.326L129.602 103.669L125.318 100.384L127.005 103.734L123.111 108.436L114.672 100.642H111.621L111.556 102.123L104.74 106.89H102.922L96.1062 102.123L95.9764 100.642H92.9903L84.4865 108.436L78.4495 105.537L80.4618 96.326L72.9318 105.795L72.737 98.0008L78.5793 87.0501L70.2054 96.8413L70.0755 106.117L72.9318 114.427L67.8685 105.795L66.5702 97.8075L69.2317 92.5254L61.0524 99.1602V96.1327L65.5315 92.3322L63.3894 85.5042Z" fill="white"/>
<path d="M107.142 112.622L105.455 115.65H98.6387L99.4826 116.809H108.181L111.102 112.622H107.142Z" fill="#D7D7D7"/>
<path d="M88.1237 34.2944L76.7637 23.4727L85.4622 33.3282L88.1237 34.2944Z" fill="#D7ECED"/>
<path d="M80.0743 27.2088L78.9058 27.402L87.6044 48.6591H82.9955L76.7637 23.4727L80.0743 27.2088Z" fill="#919191"/>
<path d="M98.248 65.2129L101.883 70.5594L102.273 73.5225H104.999V70.817L109.348 65.2129L106.687 71.268L106.038 76.4856H101.559L100.91 71.268L98.248 65.2129Z" fill="#D4E6F2"/>
<path d="M92.9859 53.9399L89.2209 62.3784L96.5562 75.9701L82.6645 70.8168L81.3662 66.2433L84.2224 63.7311L81.3662 64.6973L84.4821 59.5441L82.3399 53.9399H92.9859Z" fill="#D4E6F2"/>
<path d="M84.2259 63.7311L81.3697 64.6973L84.4856 59.5441L82.3434 53.9399L73.8396 58.5134L82.3434 57.0319L82.2785 59.8662L78.0591 66.7586L74.9432 75.197H70.2693L67.4131 81.3165L73.8396 78.0313L81.3697 66.2433L84.2259 63.7311Z" fill="white"/>
<path d="M74.4254 65.8569L66.1164 66.2434L54.8213 78.5468L62.6759 73.0715L65.9216 69.2065H71.1148L74.4254 65.8569Z" fill="white"/>
<path d="M90.5242 83.5703L83.124 80.9937L80.6572 82.282L83.124 95.8092H91.8225L96.8858 92.3307L95.3278 88.9811L89.4207 88.7879L89.0312 87.8217L94.0945 84.0212L85.4609 84.5365L90.5242 83.5703Z" fill="white"/>
<path d="M96.8846 92.3323H97.4689L92.081 96.9702L89.6143 97.2279L84.486 108.436L78.449 105.537L80.4613 96.326V92.139L77.9297 83.0564L78.7736 78.032H82.6035L94.353 82.8632L90.5231 83.5717L83.1228 80.9951L80.6561 82.2834L83.1228 95.8107H91.8213L96.8846 92.3323Z" fill="#D4E6F2"/>
<path d="M96.5578 75.9705L99.8684 72.8141L99.6088 71.4614L95.8438 75.3908L96.5578 75.9705Z" fill="#D4E6F2"/>
<path d="M128.431 24.6948L122.134 48.6574H120.057L127.132 25.9187L128.431 24.6948Z" fill="#D7ECED"/>
<path d="M105.651 28.8818L108.117 39.446H106.884L105.066 28.8818H105.651Z" fill="#D7ECED"/>
<path d="M102.015 15.6135L108.96 30.0425L111.622 31.8462L102.729 14.2607L102.015 15.6135Z" fill="#D7ECED"/>
<path d="M90.0702 131.303L87.6683 133.622L85.7858 142.769L86.8245 134.524L82.2804 149.34L84.2279 137.165L80.6576 149.662L85.3314 160.161L79.9435 150.628L81.4366 141.932L77.2171 149.211L75.6592 160.355V145.024L89.5509 127.116L90.3947 131.11L90.0702 131.303Z" fill="white"/>
<path d="M92.1504 131.561L97.4734 128.082L102.602 145.088L98.2523 163.768L105.068 146.956L102.602 133.815L106.561 133.3L106.821 142.125L108.119 133.3L113.572 133.107L111.105 156.361L115.52 139.484V125.634L110.326 118.227H107.146L107.34 126.085L101.952 118.227H97.2786L92.1504 125.634V131.561Z" fill="white"/>
<path d="M94.0301 130.337L92.8616 147.214L95.8476 156.104L91.044 148.052L90.0703 131.304L90.3949 131.11L92.1476 139.484V131.561L94.0301 130.337Z" fill="white"/>
<path d="M117.2 131.368L130.053 146.634L132.001 160.355V145.024L118.044 127.116L117.2 131.368Z" fill="white"/>
<path d="M88.7718 150.757V154.493L95.3281 160.354L88.5121 182.256L93.7053 160.87L88.3174 155.652L88.7069 143.928L88.7718 150.757Z" fill="white"/>
<path d="M95.3311 129.499V143.928L97.4732 128.082L95.3311 129.499Z" fill="white"/>
<path d="M113.564 133.107L114.408 126.666L109.929 120.482L112.98 126.794L108.696 122.285L107.787 127.116L108.112 133.3L113.564 133.107Z" fill="white"/>
<path d="M119.605 134.202L111.102 156.361L115.516 139.484L118.048 127.116L119.605 134.202Z" fill="white"/>
<path d="M118.888 143.928L125.444 148.373L124.275 157.52L123.886 154.75L122.782 159.066L118.368 163.124L119.147 164.799L118.888 169.695L117.395 162.48L122.977 156.489L123.237 149.661L118.888 143.928Z" fill="white"/>
<path d="M118.891 143.928L119.605 140.965L121.422 144.444L122.007 142.705L127.135 146.441L126.096 149.661L124.603 151.594L123.564 147.858L118.891 143.928Z" fill="white"/>
<path d="M108.436 162.674L109.15 168.664L111.097 163.769L117.199 175.235L119.146 182.256L111.422 165.057L108.436 175.042V162.674Z" fill="white"/>
<path d="M96.2344 165.057L98.6362 169.695V165.702L102.077 165.766L100.908 182.256L107.594 196.879L100.324 185.348L96.2344 165.057Z" fill="white"/>
<path d="M95.8462 105.988L89.6794 109.016L88.7706 112.108L86.7582 110.562L86.1091 111.399L83.7722 114.749L83.123 122.414L86.6284 111.786L88.6408 117.261L90.3285 110.755L95.8462 107.47L90.3285 114.105L99.1569 107.47L101.689 109.467H105.973L108.44 107.47L117.333 114.105L111.815 107.47L117.333 110.755L119.021 117.261L121.033 111.786L124.538 122.414L123.11 111.206L114.866 103.476L117.203 107.148L113.568 104.249L111.101 105.28L113.568 105.537H106.622L104.739 106.89H102.922L99.8709 104.764L95.8462 105.988Z" fill="white"/>
<path d="M64.7521 89.949L57.8062 95.8108L53.1973 103.025L58.1308 98.1942L56.3781 100.964L59.0396 99.7401L61.3765 103.025L63.1941 98.5162L69.2312 92.5256L61.0519 99.1604V96.1329L65.531 92.3323L64.7521 89.949Z" fill="white"/>
<path d="M96.1041 102.124H93.7022L90.067 106.569L91.2355 103.992L88.7687 106.311L89.4179 107.728L87.6652 107.02L84.4844 108.437L92.9882 100.642H95.9743L96.1041 102.124Z" fill="white"/>
<path d="M67.48 74.7468L59.0411 80.6731L49.8232 95.8108L58.327 84.7957L66.5712 78.032L67.48 74.7468Z" fill="white"/>
<path d="M63.4514 77.5167L61.6338 80.2222L64.6198 78.032H66.5673L67.4761 74.7468L63.4514 77.5167Z" fill="white"/>
<path d="M79.5538 100.384L73.7115 107.598L75.6589 121.19L73.2571 115.264H70.1412L68.1937 118.227H65.727L60.8584 115.972L66.2463 117.39L68.1937 114.813L67.5446 111.077L63.7146 108.629L66.1165 102.059L66.5709 97.8072L67.8692 105.795L72.9325 114.426L70.0763 106.117L70.2061 96.841L78.5801 87.0498L72.7377 98.0004L72.9325 105.795L80.4626 96.3256L79.5538 100.384Z" fill="white"/>
<path d="M79.6161 130.531L78.3827 116.295V126.344L76.5651 115.651L75.9159 128.92L69.8789 135.169L71.7614 149.662V141.159L79.6161 130.531Z" fill="white"/>
<path d="M70.7245 117.905L74.4246 123.767L69.8806 132.527L69.2314 129.049L71.8929 123.895L70.7245 117.905Z" fill="white"/>
<path d="M139.856 74.6172L150.048 81.3164L157.448 95.6812L149.009 84.7305L140.7 77.9668L139.856 74.6172Z" fill="white"/>
<path d="M133.887 66.7603H141.806L153.037 77.1312L161.605 75.9717L152.452 78.4195L144.598 72.9441L141.352 69.0792H136.224L133.887 66.7603Z" fill="white"/>
<path d="M122.274 53.9399L119.482 57.0319L120.846 61.6054L126.234 66.501L133.764 78.0313L140.255 81.3165L137.334 75.197H132.725L129.544 66.7586L123.507 61.863L122.339 59.8662L122.274 57.0319L130.778 58.5134L122.274 53.9399Z" fill="white"/>
<path d="M119.475 57.0319H112.14V53.9399H122.266L119.475 57.0319Z" fill="white"/>
<path d="M144.595 90.3353L144.206 92.3322L150.048 96.1971L157.448 106.826L150.113 99.5467L146.024 103.927L145.439 99.8044L142.583 97.5499L142.129 107.663L134.729 114.427L139.727 105.795L141.09 97.8075L138.429 92.5254L146.608 99.1602V96.1327L142.064 92.3322L144.271 85.5042L144.595 90.3353Z" fill="white"/>
<path d="M139.721 113.396L131.672 123.187L132.905 125.699L137.709 132.527L138.423 129.049L135.761 123.895L136.93 117.905L141.409 120.739L146.797 115.972L141.409 117.39L139.267 115.972L139.721 113.396Z" fill="white"/>
<path d="M134.728 105.795L130.963 104.506L134.728 114.426L129.145 107.083L124.601 114.748L123.108 108.436L127.003 103.733L125.315 100.384L129.6 103.669L127.198 96.3257L134.728 105.795Z" fill="white"/>
<path d="M123.108 108.437V111.206L124.536 122.414L124.601 114.749L123.108 108.437Z" fill="white"/>
<path d="M128.045 124.025L137.133 139.807L135.9 149.662V141.159L128.045 130.531V124.025Z" fill="white"/>
<path d="M102.079 165.766L99.7422 176.394L98.6387 165.701L102.079 165.766Z" fill="white"/>
<defs>
<radialGradient id="paint0_radial" cx="0" cy="0" r="1" gradientUnits="userSpaceOnUse" gradientTransform="translate(100 100.195) rotate(90) scale(97.0703 97.2656)">
<stop stop-color="#0F2441"/>
<stop offset="1" stop-color="#1E4F94"/>
</radialGradient>
</defs>
</svg>
